<?xml version="1.0" encoding="UTF-8" standalone="no"?>
<svg
   xmlns:dc="http://purl.org/dc/elements/1.1/"
   xmlns:cc="http://creativecommons.org/ns#"
   xmlns:rdf="http://www.w3.org/1999/02/22-rdf-syntax-ns#"
   xmlns:svg="http://www.w3.org/2000/svg"
   xmlns="http://www.w3.org/2000/svg"
   xmlns:xlink="http://www.w3.org/1999/xlink"
   xmlns:sodipodi="http://sodipodi.sourceforge.net/DTD/sodipodi-0.dtd"
   xmlns:inkscape="http://www.inkscape.org/namespaces/inkscape"
   width="1000"
   height="50"
   viewBox="0 0 264.58333 13.229167"
   version="1.1"
   id="svg8"
   inkscape:version="1.0.1 (3bc2e813f5, 2020-09-07)"
   sodipodi:docname="looad.svg">
  <defs
     id="defs2">
    <path
       id="SVGID_1_"
       d="M670.2,916.7C499.5,828.4,434,629.4,491.9,450.6c3.7-11.4-2-23.7-13.1-28.3l-3.3-1.4l-5.4,11.4      c-6,12.6-11.5,25.5-16.2,38.7c-78.9,218.3,34.1,459.1,252.4,538c1.3,0.5,2.6,0.9,4,1.4c97.6,18.4,192.5,14.6,265.5-22.9      c75-38.6,127.6-112.6,176.7-210.1c-15.9,29.6-36.1,56.6-59.9,80.4C981.1,969.2,808.3,988.2,670.2,916.7L670.2,916.7z" />
    <path
       id="SVGID_00000068675346670729329550000011491456814861807038_"
       d="M610.5,774.8c113.4,116.1,304,149,426,26.9      c60.2-145.3,32.1-233.8-54.9-280.1c38.4,51.3,43.9,120.2,14.1,176.9c-63,120.6-243.8,113.9-331.6,24.1      c-42.8-43.8-69.6-100.9-75.9-161.9c-26.7-152.4,33.5-271.7,179.2-357.6c-113.5,25.6-197.7,105.2-239.2,222.8      C488.9,548.4,520.6,682.7,610.5,774.8z" />
    <path
       id="SVGID_00000124133339070055173020000016825726520457174204_"
       d="M794.5,468.9c69.2-22.5,141.5-8.1,187,52.7      c44,33.6,67.7,82,71.4,145.5c2.2,39.2-3.3,84-16.5,134.6c103.7-103.7,103.7-271.9,0-375.7c0,0,0,0,0,0      c-102.4-102.4-220.1-94.5-341.2-31.8l-7.5,3.9l6.3,193.4c9.5-28.4,31.3-30.5,47.5-50.7C758.5,519.7,770.2,481.1,794.5,468.9z" />
    <path
       id="SVGID_00000086691758994419556740000008251830637647227051_"
       d="M848.6,269c190.5-0.1,344.9,154.2,345.1,344.6      c0,57.2-14.2,113.5-41.3,163.8c-97,192.4-244.4,270.1-442.3,233c219,76.4,458.4-39.1,534.9-258c76.4-219-39.1-458.4-258-534.9      c-40.1-14-82.2-21.9-124.7-23.2c-4.6-0.1-9.2-0.1-13.7-0.1c-27.3,0-54.5,3-81.1,8.9C610,289.5,550.2,408.7,588.2,560.7      C576,445.1,638.4,334.5,743.7,285.3l15.4-4.5C788.3,272.9,818.4,269,848.6,269L848.6,269z" />
    <path
       id="SVGID_00000017504619482096579160000002562451376853608382_"
       d="M799.1,760.2l-4.6-291.2      c-22.5,11.1-42.5,26.8-58.7,45.9c-17.7,20.9-31.6,46.5-41.7,76.6l3.8,117.1l3.9,3.7C733.5,743,767.5,753.4,799.1,760.2      L799.1,760.2z" />
  </defs>
  <sodipodi:namedview
     id="base"
     pagecolor="#ffffff"
     bordercolor="#666666"
     borderopacity="1.0"
     inkscape:pageopacity="0.0"
     inkscape:pageshadow="2"
     inkscape:zoom="6.6150112"
     inkscape:cx="21.506608"
     inkscape:cy="52.107369"
     inkscape:document-units="px"
     inkscape:current-layer="layer1"
     inkscape:document-rotation="0"
     showgrid="false"
     units="px"
     inkscape:window-width="1920"
     inkscape:window-height="1017"
     inkscape:window-x="-8"
     inkscape:window-y="-8"
     inkscape:window-maximized="1"
     inkscape:snap-intersection-paths="true"
     inkscape:snap-object-midpoints="true"
     inkscape:snap-center="true"
     inkscape:snap-bbox="true"
     inkscape:snap-bbox-midpoints="true"
     inkscape:snap-smooth-nodes="true" />
  <metadata
     id="metadata5">
    <rdf:RDF>
      <cc:Work
         rdf:about="">
        <dc:format>image/svg+xml</dc:format>
        <dc:type
           rdf:resource="http://purl.org/dc/dcmitype/StillImage" />
        <dc:title />
      </cc:Work>
    </rdf:RDF>
  </metadata>
  <g
     inkscape:label="Layer 1"
     inkscape:groupmode="layer"
     id="layer1">
    <rect
       style="fill:#ffcd02;stroke-width:0.111355;stroke-linecap:round;paint-order:markers stroke fill;stop-color:#000000;fill-opacity:1"
       id="rect837"
       width="264.58334"
       height="13.229167"
       x="-4.2529296e-06"
       y="-1.1727906e-07"
       ry="6.6145835" />
    <path
       id="path841"
       style="fill:#000080;stroke-width:0.215254;stroke-linecap:round;paint-order:markers stroke fill;stop-color:#000000"
       d="m 6.569888,-4.2623861e-5 a 6.6145832,6.6145832 0 0 0 -0.1111,0.0020999939 6.6145832,6.6145832 0 0 0 -0.11111,0.0031 6.6145832,6.6145832 0 0 0 -0.1111,0.0057 6.6145832,6.6145832 0 0 0 -0.11111,0.0072 6.6145832,6.6145832 0 0 0 -0.11059,0.0093 6.6145832,6.6145832 0 0 0 -0.1111,0.01085 6.6145832,6.6145832 0 0 0 -0.11007,0.01292 6.6145832,6.6145832 0 0 0 -0.11059,0.01499 6.6145832,6.6145832 0 0 0 -0.11007,0.01654 6.6145832,6.6145832 0 0 0 -0.10955,0.01809 6.6145832,6.6145832 0 0 0 -0.10956,0.02067 6.6145832,6.6145832 0 0 0 -0.10852,0.0217 6.6145832,6.6145832 0 0 0 -0.10903,0.02429 6.6145832,6.6145832 0 0 0 -0.10801,0.02584 6.6145832,6.6145832 0 0 0 -0.108,0.02739 6.6145832,6.6145832 0 0 0 -0.10697,0.02945 6.6145832,6.6145832 0 0 0 -0.10697,0.03101 6.6145832,6.6145832 0 0 0 -0.10594,0.03307 6.6145832,6.6145832 0 0 0 -0.10594,0.03462 6.6145832,6.6145832 0 0 0 -0.1049,0.03669 6.6145832,6.6145832 0 0 0 -0.10439,0.03824 6.6145832,6.6145832 0 0 0 -0.10387,0.04031 6.6145832,6.6145832 0 0 0 -0.10335,0.04134 6.6145832,6.6145832 0 0 0 -0.10232,0.04392 6.6145832,6.6145832 0 0 0 -0.1018,0.04496 6.6145832,6.6145832 0 0 0 -0.10077,0.04703 6.6145832,6.6145832 0 0 0 -0.0997,0.04857 6.6145832,6.6145832 0 0 0 -0.0992,0.05064 6.6145832,6.6145832 0 0 0 -0.0987,0.05168 6.6145832,6.6145832 0 0 0 -0.0972,0.05374 6.6145832,6.6145832 0 0 0 -0.0966,0.05529 6.6145832,6.6145832 0 0 0 -0.0956,0.05684 6.6145832,6.6145832 0 0 0 -0.0946,0.0584 6.6145832,6.6145832 0 0 0 -0.0935,0.05994 6.6145832,6.6145832 0 0 0 -0.093,0.0615 6.6145832,6.6145832 0 0 0 -0.0915,0.06304 6.6145832,6.6145832 0 0 0 -0.0904,0.06511 6.6145832,6.6145832 0 0 0 -0.0894,0.06615 6.6145832,6.6145832 0 0 0 -0.0884,0.0677 6.6145832,6.6145832 0 0 0 -0.0868,0.06925 6.6145832,6.6145832 0 0 0 -0.0863,0.07028 6.6145832,6.6145832 0 0 0 -0.0847,0.07235 6.6145832,6.6145832 0 0 0 -0.0832,0.07338 6.6145832,6.6145832 0 0 0 -0.0827,0.07493 6.6145832,6.6145832 0 0 0 -0.0806,0.07597 6.6145832,6.6145832 0 0 0 -0.0801,0.07803 6.6145832,6.6145832 0 0 0 -0.078,0.07855 6.6145832,6.6145832 0 0 0 -0.077,0.0801 6.6145832,6.6145832 0 0 0 -0.076,0.08165 6.6145832,6.6145832 0 0 0 -0.0744,0.08268 6.6145832,6.6145832 0 0 0 -0.0729,0.08423 6.6145832,6.6145832 0 0 0 -0.0713,0.08527 6.6145832,6.6145832 0 0 0 -0.0703,0.0863 6.6145832,6.6145832 0 0 0 -0.0682,0.08785 6.6145832,6.6145832 0 0 0 -0.0672,0.08837 6.6145832,6.6145832 0 0 0 -0.0656,0.08992 6.6145832,6.6145832 0 0 0 -0.0641,0.09095 6.6145832,6.6145832 0 0 0 -0.0625,0.09198 6.6145832,6.6145832 0 0 0 -0.061,0.09302 6.6145832,6.6145832 0 0 0 -0.0594,0.09405 6.6145832,6.6145832 0 0 0 -0.0579,0.09509 6.6145832,6.6145832 0 0 0 -0.0563,0.09612 6.6145832,6.6145832 0 0 0 -0.0548,0.09663 6.6145832,6.6145832 0 0 0 -0.0527,0.09819 6.6145832,6.6145832 0 0 0 -0.0512,0.0987 6.6145832,6.6145832 0 0 0 -0.0496,0.09922 6.6145832,6.6145832 0 0 0 -0.0481,0.100769 6.6145832,6.6145832 0 0 0 -0.0465,0.100769 6.6145832,6.6145832 0 0 0 -0.0444,0.102319 6.6145832,6.6145832 0 0 0 -0.0429,0.10232 6.6145832,6.6145832 0 0 0 -0.0408,0.103352 6.6145832,6.6145832 0 0 0 -0.0393,0.104387 6.6145832,6.6145832 0 0 0 -0.0377,0.104386 6.6145832,6.6145832 0 0 0 -0.0357,0.10542 6.6145832,6.6145832 0 0 0 -0.0341,0.105937 6.6145832,6.6145832 0 0 0 -0.0325,0.106453 6.6145832,6.6145832 0 0 0 -0.0305,0.10697 6.6145832,6.6145832 0 0 0 -0.0284,0.107487 6.6145832,6.6145832 0 0 0 -0.0269,0.108004 6.6145832,6.6145832 0 0 0 -0.0253,0.108521 6.6145832,6.6145832 0 0 0 -0.0233,0.10852 6.6145832,6.6145832 0 0 0 -0.0212,0.109554 6.6145832,6.6145832 0 0 0 -0.0196,0.109038 6.6145832,6.6145832 0 0 0 -0.0176,0.11007 6.6145832,6.6145832 0 0 0 -0.016,0.110071 6.6145832,6.6145832 0 0 0 -0.014,0.110588 6.6145832,6.6145832 0 0 0 -0.0119,0.110587 6.6145832,6.6145832 0 0 0 -0.0103,0.110588 6.6145832,6.6145832 0 0 0 -0.008,0.111104 6.6145832,6.6145832 0 0 0 -0.007,0.110588 6.6145832,6.6145832 0 0 0 -0.005,0.111621 6.6145832,6.6145832 0 0 0 -0.003000003,0.111104 6.6145832,6.6145832 0 0 0 -5.09999997e-4,0.111104 v 0.04444 a 6.6145832,6.6145832 0 0 0 0.002000003,0.111105 6.6145832,6.6145832 0 0 0 0.004,0.111621 6.6145832,6.6145832 0 0 0 0.005,0.111104 6.6145832,6.6145832 0 0 0 0.008,0.110588 6.6145832,6.6145832 0 0 0 0.009,0.111104 6.6145832,6.6145832 0 0 0 0.0114,0.110587 6.6145832,6.6145832 0 0 0 0.0129,0.110588 6.6145832,6.6145832 0 0 0 0.0145,0.110071 6.6145832,6.6145832 0 0 0 0.0165,0.11007 6.6145832,6.6145832 0 0 0 0.0186,0.109555 6.6145832,6.6145832 0 0 0 0.0202,0.109554 6.6145832,6.6145832 0 0 0 0.0222,0.109037 6.6145832,6.6145832 0 0 0 0.0238,0.10852 6.6145832,6.6145832 0 0 0 0.0258,0.108521 6.6145832,6.6145832 0 0 0 0.0274,0.107487 6.6145832,6.6145832 0 0 0 0.0294,0.107487 6.6145832,6.6145832 0 0 0 0.0315,0.106453 6.6145832,6.6145832 0 0 0 0.0331,0.106454 6.6145832,6.6145832 0 0 0 0.0346,0.105936 6.6145832,6.6145832 0 0 0 0.0367,0.104904 6.6145832,6.6145832 0 0 0 0.0382,0.104386 6.6145832,6.6145832 0 0 0 0.0398,0.10387 6.6145832,6.6145832 0 0 0 0.0419,0.102836 6.6145832,6.6145832 0 0 0 0.0434,0.102319 6.6145832,6.6145832 0 0 0 0.0455,0.101803 6.6145832,6.6145832 0 0 0 0.047,0.100769 6.6145832,6.6145832 0 0 0 0.0486,0.100252 6.6145832,6.6145832 0 0 0 0.0501,0.09922 6.6145832,6.6145832 0 0 0 0.0522,0.09819 6.6145832,6.6145832 0 0 0 0.0532,0.09767 6.6145832,6.6145832 0 0 0 0.0553,0.09664 6.6145832,6.6145832 0 0 0 0.0568,0.0956 6.6145832,6.6145832 0 0 0 0.0584,0.09457 6.6145832,6.6145832 0 0 0 0.0605,0.09353 6.6145832,6.6145832 0 0 0 0.0615,0.0925 6.6145832,6.6145832 0 0 0 0.063,0.09199 6.6145832,6.6145832 0 0 0 0.0646,0.09043 6.6145832,6.6145832 0 0 0 0.0662,0.0894 6.6145832,6.6145832 0 0 0 0.0677,0.08785 6.6145832,6.6145832 0 0 0 0.0692,0.08733 6.6145832,6.6145832 0 0 0 0.0708,0.08578 6.6145832,6.6145832 0 0 0 0.0718,0.08475 6.6145832,6.6145832 0 0 0 0.0734,0.08371 6.6145832,6.6145832 0 0 0 0.0749,0.08217 6.6145832,6.6145832 0 0 0 0.0765,0.08113 6.6145832,6.6145832 0 0 0 0.0775,0.07958 6.6145832,6.6145832 0 0 0 0.0791,0.07855 6.6145832,6.6145832 0 0 0 0.0801,0.077 6.6145832,6.6145832 0 0 0 0.0816,0.07597 6.6145832,6.6145832 0 0 0 0.0827,0.0739 6.6145832,6.6145832 0 0 0 0.0842,0.07286 6.6145832,6.6145832 0 0 0 0.0847,0.07183 6.6145832,6.6145832 0 0 0 0.0868,0.06976 6.6145832,6.6145832 0 0 0 0.0873,0.06873 6.6145832,6.6145832 0 0 0 0.0889,0.06718 6.6145832,6.6145832 0 0 0 0.0899,0.06563 6.6145832,6.6145832 0 0 0 0.0909,0.06408 6.6145832,6.6145832 0 0 0 0.092,0.06253 6.6145832,6.6145832 0 0 0 0.093,0.06098 6.6145832,6.6145832 0 0 0 0.094,0.05943 6.6145832,6.6145832 0 0 0 0.0951,0.05788 6.6145832,6.6145832 0 0 0 0.0956,0.05581 6.6145832,6.6145832 0 0 0 0.0971,0.05478 6.6145832,6.6145832 0 0 0 0.0977,0.05323 6.6145832,6.6145832 0 0 0 0.0987,0.05116 6.6145832,6.6145832 0 0 0 0.0997,0.04961 6.6145832,6.6145832 0 0 0 0.10026,0.04806 6.6145832,6.6145832 0 0 0 0.10128,0.04599 6.6145832,6.6145832 0 0 0 0.10181,0.04444 6.6145832,6.6145832 0 0 0 0.10283,0.04289 6.6145832,6.6145832 0 0 0 0.10335,0.04134 6.6145832,6.6145832 0 0 0 0.10387,0.03927 6.6145832,6.6145832 0 0 0 0.10491,0.03772 6.6145832,6.6145832 0 0 0 0.10542,0.03566 6.6145832,6.6145832 0 0 0 0.10593,0.03411 6.6145832,6.6145832 0 0 0 0.10646,0.03204 6.6145832,6.6145832 0 0 0 0.10697,0.03049 6.6145832,6.6145832 0 0 0 0.10748,0.02894 6.6145832,6.6145832 0 0 0 0.10801,0.02687 6.6145832,6.6145832 0 0 0 0.108,0.02481 6.6145832,6.6145832 0 0 0 0.10904,0.02325 6.6145832,6.6145832 0 0 0 0.10904,0.0217 6.6145832,6.6145832 0 0 0 0.10955,0.01912 6.6145832,6.6145832 0 0 0 0.11007,0.01809 6.6145832,6.6145832 0 0 0 0.11007,0.0155 6.6145832,6.6145832 0 0 0 0.11007,0.01395 6.6145832,6.6145832 0 0 0 0.11059,0.0124 6.6145832,6.6145832 0 0 0 0.11059,0.01034 6.6145832,6.6145832 0 0 0 0.1111,0.0083 6.6145832,6.6145832 0 0 0 0.11111,0.0067 6.6145832,6.6145832 0 0 0 0.1111,0.0047 6.6145832,6.6145832 0 0 0 0.1111,0.0026 6.6145832,6.6145832 0 0 0 0.11163,0.001 V -4.2623861e-5 Z" />
    <rect
       style="fill:#000080;stroke-width:0.0349732;stroke-linecap:round;paint-order:markers stroke fill;stop-color:#000000"
       id="rect833"
       width="0.26458335"
       height="13.229167"
       x="6.3499999"
       y="1.323489e-23">
      <animate
         attributeName="width"
         from="0"
         to="251.354163"
         dur="3s"
         repeatCount="indefinite" />
    </rect>
    <circle
       style="fill:#000080;stroke-width:0.0938066;stroke-linecap:round;paint-order:markers stroke fill;stop-color:#000000"
       id="path835"
       cx="6.6145835"
       cy="6.6145835"
       r="6.6145835">
      <animateTransform
         attributeName="transform"
         attributeType="XML"
         type="translate"
         from="0 0"
         to="251.354163 0"
         dur="3s"
         repeatCount="indefinite" />
    </circle>
  </g>
  <g
     inkscape:groupmode="layer"
     id="layer2"
     inkscape:label="Layer 2"
     style="display:inline">
    <g
       id="Layer_2"
       transform="matrix(0.01575344,0,0,0.01575344,-6.7544437,-3.0593175)">
      <g
         id="Layer_1-2">
        <g
           id="g858">
          <defs
             id="defs838">
            <path
               id="path959"
               d="M 670.2,916.7 C 499.5,828.4 434,629.4 491.9,450.6 c 3.7,-11.4 -2,-23.7 -13.1,-28.3 l -3.3,-1.4 -5.4,11.4 c -6,12.6 -11.5,25.5 -16.2,38.7 -78.9,218.3 34.1,459.1 252.4,538 1.3,0.5 2.6,0.9 4,1.4 97.6,18.4 192.5,14.6 265.5,-22.9 75,-38.6 127.6,-112.6 176.7,-210.1 -15.9,29.6 -36.1,56.6 -59.9,80.4 -111.5,111.4 -284.3,130.4 -422.4,58.9 z" />
          </defs>
          <clipPath
             id="SVGID_00000145058751107801603890000003099420144833037987_">
            <use
               xlink:href="#SVGID_1_"
               style="overflow:visible"
               id="use840"
               x="0"
               y="0"
               width="100%"
               height="100%" />
          </clipPath>
          <g
             clip-path="url(#SVGID_00000145058751107801603890000003099420144833037987_)"
             id="g856">
            <linearGradient
               id="SVGID_00000053535181750812256720000010007445397408363157_"
               gradientUnits="userSpaceOnUse"
               x1="137.0768"
               y1="1133.693"
               x2="580.65948"
               y2="385.81381"
               gradientTransform="matrix(1,0,0,-1,454,1496)">
              <stop
                 offset="0.14"
                 style="stop-color:#FFCD02"
                 id="stop843" />
              <stop
                 offset="0.37"
                 style="stop-color:#FF963B"
                 id="stop845" />
              <stop
                 offset="0.7"
                 style="stop-color:#FF6373"
                 id="stop847" />
              <stop
                 offset="1"
                 style="stop-color:#FF4295"
                 id="stop849" />
            </linearGradient>
            <rect
               x="419"
               y="409.10001"
               style="fill:url(#SVGID_00000053535181750812256720000010007445397408363157_)"
               width="780"
               height="641.40002"
               id="rect852" />
            <ellipse
               class="st2"
               cx="848.90002"
               cy="604.09998"
               rx="397.79999"
               ry="393.79999"
               id="ellipse854" />
          </g>
        </g>
        <g
           id="g879">
          <defs
             id="defs861">
            <path
               id="path973"
               d="m 610.5,774.8 c 113.4,116.1 304,149 426,26.9 60.2,-145.3 32.1,-233.8 -54.9,-280.1 38.4,51.3 43.9,120.2 14.1,176.9 -63,120.6 -243.8,113.9 -331.6,24.1 C 621.3,678.8 594.5,621.7 588.2,560.7 561.5,408.3 621.7,289 767.4,203.1 653.9,228.7 569.7,308.3 528.2,425.9 c -39.3,122.5 -7.6,256.8 82.3,348.9 z" />
          </defs>
          <clipPath
             id="SVGID_00000068664196203460030910000014090149601466087040_">
            <use
               xlink:href="#SVGID_00000068675346670729329550000011491456814861807038_"
               style="overflow:visible"
               id="use863"
               x="0"
               y="0"
               width="100%"
               height="100%" />
          </clipPath>
          <g
             clip-path="url(#SVGID_00000068664196203460030910000014090149601466087040_)"
             id="g877">
            <linearGradient
               id="SVGID_00000139994816362256051150000007856331790765846158_"
               gradientUnits="userSpaceOnUse"
               x1="4.4724002"
               y1="1277.2576"
               x2="687.6275"
               y2="594.10248"
               gradientTransform="matrix(1,0,0,-1,454,1496)">
              <stop
                 offset="0"
                 style="stop-color:#1B59D2"
                 id="stop866" />
              <stop
                 offset="0.51"
                 style="stop-color:#4E9BF2"
                 id="stop868" />
              <stop
                 offset="0.98"
                 style="stop-color:#1B59D2"
                 id="stop870" />
            </linearGradient>
            <rect
               x="497.5"
               y="179.8"
               style="fill:url(#SVGID_00000139994816362256051150000007856331790765846158_)"
               width="605.20001"
               height="761.09998"
               id="rect873" />
            <path
               class="st2"
               d="m 1099.2,525.5 c 0,195.5 -119.7,305.6 -257,305.6 -171.3,0 -298.9,-138.1 -298.9,-316.9 0,-178.8 138.9,-324 310.2,-324 171.3,0 245.7,156.5 245.7,335.3 z"
               id="path875" />
          </g>
        </g>
        <g
           id="g900">
          <defs
             id="defs882">
            <path
               id="path986"
               d="m 794.5,468.9 c 69.2,-22.5 141.5,-8.1 187,52.7 44,33.6 67.7,82 71.4,145.5 2.2,39.2 -3.3,84 -16.5,134.6 103.7,-103.7 103.7,-271.9 0,-375.7 0,0 0,0 0,0 C 934,323.6 816.3,331.5 695.2,394.2 l -7.5,3.9 6.3,193.4 c 9.5,-28.4 31.3,-30.5 47.5,-50.7 17,-21.1 28.7,-59.7 53,-71.9 z" />
          </defs>
          <clipPath
             id="SVGID_00000084493024695181474370000013775551965658988455_">
            <use
               xlink:href="#SVGID_00000124133339070055173020000016825726520457174204_"
               style="overflow:visible"
               id="use884"
               x="0"
               y="0"
               width="100%"
               height="100%" />
          </clipPath>
          <g
             clip-path="url(#SVGID_00000084493024695181474370000013775551965658988455_)"
             id="g898">
            <linearGradient
               id="SVGID_00000096775183951085280650000013887515065972222652_"
               gradientUnits="userSpaceOnUse"
               x1="168.8085"
               y1="1093.7627"
               x2="725.23059"
               y2="772.50232"
               gradientTransform="matrix(1,0,0,-1,454,1496)">
              <stop
                 offset="0"
                 style="stop-color:#50AFF3"
                 id="stop887" />
              <stop
                 offset="0.33"
                 style="stop-color:#4064C5"
                 id="stop889" />
              <stop
                 offset="1"
                 style="stop-color:#6C349F"
                 id="stop891" />
            </linearGradient>
            <rect
               x="673"
               y="315.39999"
               style="fill:url(#SVGID_00000096775183951085280650000013887515065972222652_)"
               width="456.10001"
               height="495"
               id="rect894" />
            <path
               class="st7"
               d="m 481.5,187.9 v 869.6 h 753.7 V 187.9 Z M 838,895.3 c -138.5,0 -225.8,-47.4 -225.8,-185.9 0,-140 103.7,-305.9 242.2,-305.9 114.1,0 234.2,102.7 234.2,241.1 0.1,138.5 -112.1,250.7 -250.6,250.7 0.1,0 0,0 0,0 z"
               id="path896" />
          </g>
        </g>
        <g
           id="g921">
          <defs
             id="defs903">
            <path
               id="path999"
               d="m 848.6,269 c 190.5,-0.1 344.9,154.2 345.1,344.6 0,57.2 -14.2,113.5 -41.3,163.8 -97,192.4 -244.4,270.1 -442.3,233 219,76.4 458.4,-39.1 534.9,-258 76.4,-219 -39.1,-458.4 -258,-534.9 -40.1,-14 -82.2,-21.9 -124.7,-23.2 -4.6,-0.1 -9.2,-0.1 -13.7,-0.1 -27.3,0 -54.5,3 -81.1,8.9 C 610,289.5 550.2,408.7 588.2,560.7 576,445.1 638.4,334.5 743.7,285.3 l 15.4,-4.5 c 29.2,-7.9 59.3,-11.8 89.5,-11.8 z" />
          </defs>
          <clipPath
             id="SVGID_00000099661357791914082750000015154533892400370601_">
            <use
               xlink:href="#SVGID_00000086691758994419556740000008251830637647227051_"
               style="overflow:visible"
               id="use905"
               x="0"
               y="0"
               width="100%"
               height="100%" />
          </clipPath>
          <g
             clip-path="url(#SVGID_00000099661357791914082750000015154533892400370601_)"
             id="g919">
            <linearGradient
               id="SVGID_00000129176651838632943110000014686767742153261502_"
               gradientUnits="userSpaceOnUse"
               x1="287.52621"
               y1="1379.9747"
               x2="649.98682"
               y2="384.11929"
               gradientTransform="matrix(1,0,0,-1,454,1496)">
              <stop
                 offset="0"
                 style="stop-color:#A700BA"
                 id="stop908" />
              <stop
                 offset="0.49"
                 style="stop-color:#C00C95"
                 id="stop910" />
              <stop
                 offset="0.86"
                 style="stop-color:#DB1B62"
                 id="stop912" />
            </linearGradient>
            <rect
               x="559.5"
               y="182.3"
               style="fill:url(#SVGID_00000129176651838632943110000014686767742153261502_)"
               width="726.5"
               height="863.29999"
               id="rect915" />
            <path
               class="st10"
               d="m 393.6,18.1 v 1135.8 h 934.5 V 18.1 Z m 464.1,1003 C 651,1021.1 483.4,843 483.4,623.4 483.4,403.8 651,225.8 857.7,225.8 c 206.7,0 374.3,178.1 374.3,397.6 0,219.5 -167.6,397.7 -374.3,397.7 z"
               id="path917" />
          </g>
        </g>
        <g
           id="g942">
          <defs
             id="defs924">
            <path
               id="path1012"
               d="M 799.1,760.2 794.5,469 c -22.5,11.1 -42.5,26.8 -58.7,45.9 -17.7,20.9 -31.6,46.5 -41.7,76.6 l 3.8,117.1 3.9,3.7 c 31.7,30.7 65.7,41.1 97.3,47.9 z" />
          </defs>
          <clipPath
             id="SVGID_00000101080994678384537080000012159139783534266518_">
            <use
               xlink:href="#SVGID_00000017504619482096579160000002562451376853608382_"
               style="overflow:visible"
               id="use926"
               x="0"
               y="0"
               width="100%"
               height="100%" />
          </clipPath>
          <g
             clip-path="url(#SVGID_00000101080994678384537080000012159139783534266518_)"
             id="g940">
            <linearGradient
               id="SVGID_00000109712838896794062370000010711819726496527546_"
               gradientUnits="userSpaceOnUse"
               x1="292.63449"
               y1="1030.6536"
               x2="292.63449"
               y2="732.23932"
               gradientTransform="matrix(1,0,0,-1,454,1496)">
              <stop
                 offset="0"
                 style="stop-color:#1C58D2"
                 id="stop929" />
              <stop
                 offset="0.33"
                 style="stop-color:#5734CA"
                 id="stop931" />
              <stop
                 offset="1"
                 style="stop-color:#A203BC"
                 id="stop933" />
            </linearGradient>
            <rect
               x="689.20001"
               y="465.29999"
               style="fill:url(#SVGID_00000109712838896794062370000010711819726496527546_)"
               width="114.9"
               height="298.39999"
               id="rect936" />
            <rect
               x="747.79999"
               y="420"
               transform="matrix(0.9996,-0.02998651,0.02998651,0.9996,-17.5148,23.9321)"
               class="st2"
               width="82.800003"
               height="351.79999"
               id="rect938" />
          </g>
        </g>
      </g>
    </g>
    <animateTransform
       attributeName="transform"
       attributeType="XML"
       type="translate"
       from="0 0"
       to="251.354163 0"
       dur="3s"
       repeatCount="indefinite" />
  </g>
  <style
     type="text/css"
     id="style835">
	.st0{clip-path:url(#SVGID_00000060007847652082710140000006795427762608792966_);}
	.st1{fill:url(#SVGID_00000078726619705516566400000004006009668568883892_);}
	.st2{opacity:0.1;enable-background:new    ;}
	.st3{clip-path:url(#SVGID_00000090290318917500506660000002052061269494477225_);}
	.st4{fill:url(#SVGID_00000009568195812020242300000012744760633989959095_);}
	.st5{clip-path:url(#SVGID_00000053520416364353932890000009936029084590913421_);}
	.st6{fill:url(#SVGID_00000107575271690689436820000014868075285764917181_);}
	.st7{opacity:0.1;stroke:#000000;stroke-width:2.071171e-02;stroke-miterlimit:10;enable-background:new    ;}
	.st8{clip-path:url(#SVGID_00000139285236283598627790000004627246110805404044_);}
	.st9{fill:url(#SVGID_00000116941316695414986120000001909013826672748438_);}
	
		.st10{opacity:0.1;fill-rule:evenodd;clip-rule:evenodd;stroke:#000000;stroke-width:2.071171e-02;stroke-miterlimit:10;enable-background:new    ;}
	.st11{clip-path:url(#SVGID_00000078736506695678094360000016217025963104872601_);}
	.st12{fill:url(#SVGID_00000119106271750280630620000002025101925913077637_);}
</style>
</svg>
