<?xml version="1.0" encoding="UTF-8" standalone="no"?>
<svg
   xmlns:dc="http://purl.org/dc/elements/1.1/"
   xmlns:cc="http://creativecommons.org/ns#"
   xmlns:rdf="http://www.w3.org/1999/02/22-rdf-syntax-ns#"
   xmlns:svg="http://www.w3.org/2000/svg"
   xmlns="http://www.w3.org/2000/svg"
   xmlns:xlink="http://www.w3.org/1999/xlink"
   xmlns:sodipodi="http://sodipodi.sourceforge.net/DTD/sodipodi-0.dtd"
   xmlns:inkscape="http://www.inkscape.org/namespaces/inkscape"
   width="100%"
   height="100%"
   viewBox="0 0 1000 50"
   version="1.1"
   id="svg8"
   inkscape:version="1.0.1 (3bc2e813f5, 2020-09-07)"
   sodipodi:docname="loading.svg">
  <defs
     id="defs2">
    <clipPath
       id="SVGID_00000145058751107801603890000003099420144833037987_">
      <use
         xlink:href="#SVGID_1_"
         style="overflow:visible"
         id="use7"
         x="0"
         y="0"
         width="100%"
         height="100%" />
    </clipPath>
    <linearGradient
       id="SVGID_00000053535181750812256720000010007445397408363157_"
       gradientUnits="userSpaceOnUse"
       x1="137.0768"
       y1="1133.693"
       x2="580.65948"
       y2="385.81381"
       gradientTransform="matrix(1,0,0,-1,454,1496)">
      <stop
         offset="0.14"
         style="stop-color:#FFCD02"
         id="stop10" />
      <stop
         offset="0.37"
         style="stop-color:#FF963B"
         id="stop12" />
      <stop
         offset="0.7"
         style="stop-color:#FF6373"
         id="stop14" />
      <stop
         offset="1"
         style="stop-color:#FF4295"
         id="stop16" />
    </linearGradient>
    <clipPath
       id="SVGID_00000068664196203460030910000014090149601466087040_">
      <use
         xlink:href="#SVGID_00000068675346670729329550000011491456814861807038_"
         style="overflow:visible"
         id="use30"
         x="0"
         y="0"
         width="100%"
         height="100%" />
    </clipPath>
    <linearGradient
       id="SVGID_00000139994816362256051150000007856331790765846158_"
       gradientUnits="userSpaceOnUse"
       x1="4.4724002"
       y1="1277.2576"
       x2="687.6275"
       y2="594.10248"
       gradientTransform="matrix(1,0,0,-1,454,1496)">
      <stop
         offset="0"
         style="stop-color:#1B59D2"
         id="stop33" />
      <stop
         offset="0.51"
         style="stop-color:#4E9BF2"
         id="stop35" />
      <stop
         offset="0.98"
         style="stop-color:#1B59D2"
         id="stop37" />
    </linearGradient>
    <clipPath
       id="SVGID_00000084493024695181474370000013775551965658988455_">
      <use
         xlink:href="#SVGID_00000124133339070055173020000016825726520457174204_"
         style="overflow:visible"
         id="use51"
         x="0"
         y="0"
         width="100%"
         height="100%" />
    </clipPath>
    <linearGradient
       id="SVGID_00000096775183951085280650000013887515065972222652_"
       gradientUnits="userSpaceOnUse"
       x1="168.8085"
       y1="1093.7627"
       x2="725.23059"
       y2="772.50232"
       gradientTransform="matrix(1,0,0,-1,454,1496)">
      <stop
         offset="0"
         style="stop-color:#50AFF3"
         id="stop54" />
      <stop
         offset="0.33"
         style="stop-color:#4064C5"
         id="stop56" />
      <stop
         offset="1"
         style="stop-color:#6C349F"
         id="stop58" />
    </linearGradient>
    <clipPath
       id="SVGID_00000099661357791914082750000015154533892400370601_">
      <use
         xlink:href="#SVGID_00000086691758994419556740000008251830637647227051_"
         style="overflow:visible"
         id="use72"
         x="0"
         y="0"
         width="100%"
         height="100%" />
    </clipPath>
    <linearGradient
       id="SVGID_00000129176651838632943110000014686767742153261502_"
       gradientUnits="userSpaceOnUse"
       x1="287.52621"
       y1="1379.9747"
       x2="649.98682"
       y2="384.11929"
       gradientTransform="matrix(1,0,0,-1,454,1496)">
      <stop
         offset="0"
         style="stop-color:#A700BA"
         id="stop75" />
      <stop
         offset="0.49"
         style="stop-color:#C00C95"
         id="stop77" />
      <stop
         offset="0.86"
         style="stop-color:#DB1B62"
         id="stop79" />
    </linearGradient>
    <clipPath
       id="SVGID_00000101080994678384537080000012159139783534266518_">
      <use
         xlink:href="#SVGID_00000017504619482096579160000002562451376853608382_"
         style="overflow:visible"
         id="use93"
         x="0"
         y="0"
         width="100%"
         height="100%" />
    </clipPath>
    <linearGradient
       id="SVGID_00000109712838896794062370000010711819726496527546_"
       gradientUnits="userSpaceOnUse"
       x1="292.63449"
       y1="1030.6536"
       x2="292.63449"
       y2="732.23932"
       gradientTransform="matrix(1,0,0,-1,454,1496)">
      <stop
         offset="0"
         style="stop-color:#1C58D2"
         id="stop96" />
      <stop
         offset="0.33"
         style="stop-color:#5734CA"
         id="stop98" />
      <stop
         offset="1"
         style="stop-color:#A203BC"
         id="stop100" />
    </linearGradient>
    <path
       id="SVGID_1_"
       d="M 670.2,916.7 C 499.5,828.4 434,629.4 491.9,450.6 c 3.7,-11.4 -2,-23.7 -13.1,-28.3 l -3.3,-1.4 -5.4,11.4 c -6,12.6 -11.5,25.5 -16.2,38.7 -78.9,218.3 34.1,459.1 252.4,538 1.3,0.5 2.6,0.9 4,1.4 97.6,18.4 192.5,14.6 265.5,-22.9 75,-38.6 127.6,-112.6 176.7,-210.1 -15.9,29.6 -36.1,56.6 -59.9,80.4 -111.5,111.4 -284.3,130.4 -422.4,58.9 z" />
    <path
       id="SVGID_00000068675346670729329550000011491456814861807038_"
       d="m 610.5,774.8 c 113.4,116.1 304,149 426,26.9 60.2,-145.3 32.1,-233.8 -54.9,-280.1 38.4,51.3 43.9,120.2 14.1,176.9 -63,120.6 -243.8,113.9 -331.6,24.1 C 621.3,678.8 594.5,621.7 588.2,560.7 561.5,408.3 621.7,289 767.4,203.1 653.9,228.7 569.7,308.3 528.2,425.9 c -39.3,122.5 -7.6,256.8 82.3,348.9 z" />
    <path
       id="SVGID_00000124133339070055173020000016825726520457174204_"
       d="m 794.5,468.9 c 69.2,-22.5 141.5,-8.1 187,52.7 44,33.6 67.7,82 71.4,145.5 2.2,39.2 -3.3,84 -16.5,134.6 103.7,-103.7 103.7,-271.9 0,-375.7 0,0 0,0 0,0 C 934,323.6 816.3,331.5 695.2,394.2 l -7.5,3.9 6.3,193.4 c 9.5,-28.4 31.3,-30.5 47.5,-50.7 17,-21.1 28.7,-59.7 53,-71.9 z" />
    <path
       id="SVGID_00000086691758994419556740000008251830637647227051_"
       d="m 848.6,269 c 190.5,-0.1 344.9,154.2 345.1,344.6 0,57.2 -14.2,113.5 -41.3,163.8 -97,192.4 -244.4,270.1 -442.3,233 219,76.4 458.4,-39.1 534.9,-258 76.4,-219 -39.1,-458.4 -258,-534.9 -40.1,-14 -82.2,-21.9 -124.7,-23.2 -4.6,-0.1 -9.2,-0.1 -13.7,-0.1 -27.3,0 -54.5,3 -81.1,8.9 C 610,289.5 550.2,408.7 588.2,560.7 576,445.1 638.4,334.5 743.7,285.3 l 15.4,-4.5 c 29.2,-7.9 59.3,-11.8 89.5,-11.8 z" />
    <path
       id="SVGID_00000017504619482096579160000002562451376853608382_"
       d="M 799.1,760.2 794.5,469 c -22.5,11.1 -42.5,26.8 -58.7,45.9 -17.7,20.9 -31.6,46.5 -41.7,76.6 l 3.8,117.1 3.9,3.7 c 31.7,30.7 65.7,41.1 97.3,47.9 z" />
    <path
       id="SVGID_1_-6"
       d="M670.2,916.7C499.5,828.4,434,629.4,491.9,450.6c3.7-11.4-2-23.7-13.1-28.3l-3.3-1.4l-5.4,11.4      c-6,12.6-11.5,25.5-16.2,38.7c-78.9,218.3,34.1,459.1,252.4,538c1.3,0.5,2.6,0.9,4,1.4c97.6,18.4,192.5,14.6,265.5-22.9      c75-38.6,127.6-112.6,176.7-210.1c-15.9,29.6-36.1,56.6-59.9,80.4C981.1,969.2,808.3,988.2,670.2,916.7L670.2,916.7z" />
    <path
       id="SVGID_00000068675346670729329550000011491456814861807038_-8"
       d="M610.5,774.8c113.4,116.1,304,149,426,26.9      c60.2-145.3,32.1-233.8-54.9-280.1c38.4,51.3,43.9,120.2,14.1,176.9c-63,120.6-243.8,113.9-331.6,24.1      c-42.8-43.8-69.6-100.9-75.9-161.9c-26.7-152.4,33.5-271.7,179.2-357.6c-113.5,25.6-197.7,105.2-239.2,222.8      C488.9,548.4,520.6,682.7,610.5,774.8z" />
    <path
       id="SVGID_00000124133339070055173020000016825726520457174204_-5"
       d="M794.5,468.9c69.2-22.5,141.5-8.1,187,52.7      c44,33.6,67.7,82,71.4,145.5c2.2,39.2-3.3,84-16.5,134.6c103.7-103.7,103.7-271.9,0-375.7c0,0,0,0,0,0      c-102.4-102.4-220.1-94.5-341.2-31.8l-7.5,3.9l6.3,193.4c9.5-28.4,31.3-30.5,47.5-50.7C758.5,519.7,770.2,481.1,794.5,468.9z" />
    <path
       id="SVGID_00000086691758994419556740000008251830637647227051_-9"
       d="M848.6,269c190.5-0.1,344.9,154.2,345.1,344.6      c0,57.2-14.2,113.5-41.3,163.8c-97,192.4-244.4,270.1-442.3,233c219,76.4,458.4-39.1,534.9-258c76.4-219-39.1-458.4-258-534.9      c-40.1-14-82.2-21.9-124.7-23.2c-4.6-0.1-9.2-0.1-13.7-0.1c-27.3,0-54.5,3-81.1,8.9C610,289.5,550.2,408.7,588.2,560.7      C576,445.1,638.4,334.5,743.7,285.3l15.4-4.5C788.3,272.9,818.4,269,848.6,269L848.6,269z" />
    <path
       id="SVGID_00000017504619482096579160000002562451376853608382_-5"
       d="M799.1,760.2l-4.6-291.2      c-22.5,11.1-42.5,26.8-58.7,45.9c-17.7,20.9-31.6,46.5-41.7,76.6l3.8,117.1l3.9,3.7C733.5,743,767.5,753.4,799.1,760.2      L799.1,760.2z" />
  </defs>
  <sodipodi:namedview
     id="base"
     pagecolor="#ffffff"
     bordercolor="#666666"
     borderopacity="1.0"
     inkscape:pageopacity="0.0"
     inkscape:pageshadow="2"
     inkscape:zoom="0.5412814"
     inkscape:cx="279.31486"
     inkscape:cy="55.852781"
     inkscape:document-units="px"
     inkscape:current-layer="layer1"
     inkscape:document-rotation="0"
     showgrid="false"
     units="px"
     inkscape:snap-object-midpoints="true"
     inkscape:snap-intersection-paths="true"
     inkscape:window-width="1920"
     inkscape:window-height="1017"
     inkscape:window-x="-8"
     inkscape:window-y="-8"
     inkscape:window-maximized="1" />
  <metadata
     id="metadata5">
    <rdf:RDF>
      <cc:Work
         rdf:about="">
        <dc:format>image/svg+xml</dc:format>
        <dc:type
           rdf:resource="http://purl.org/dc/dcmitype/StillImage" />
        <dc:title />
      </cc:Work>
    </rdf:RDF>
  </metadata>
  <g
     inkscape:label="Layer 1"
     inkscape:groupmode="layer"
     id="layer1">
    <rect
       style="fill:#edb808;fill-opacity:1;stroke-width:3.53431;stroke-linecap:round;paint-order:markers stroke fill;stop-color:#000000"
       id="rect939"
       width="1000"
       height="49.999367"
       x="0"
       y="8.3454222e-05" />
    <g
       id="g942"
       style="fill:#000080"
       transform="matrix(3.7795751,0,0,3.7795751,0,-2.3194583e-4)">
      <rect
         style="fill:#000080;stroke-width:0.697046;stroke-linecap:round;paint-order:markers stroke fill;stop-color:#000000"
         id="rect938"
         width="6.6148195"
         height="13.229"
         x="0"
         y="8.3454222e-05">
        <animate
           attributeName="width"
           fill="freeze"
           from="0"
           to="257.96883"
           dur="5s"
           repeatCount="indefinite" />
      </rect>
      <circle
         style="fill:#000080;stroke-width:0.282122;stroke-linecap:round;paint-order:markers stroke fill;stop-color:#000000"
         id="path936"
         cx="6.6145"
         cy="6.6145835"
         r="6.6145">
        <animate
           attributeType="XML"
           attributeName="cx"
           fill="freeze"
           from="0"
           to="257.96883"
           dur="5s"
           repeatCount="indefinite" />
      </circle>
    </g>
    <g
       id="g1001"
       transform="matrix(3.7795279,0,0,3.7795279,-1.0026007e-7,-2.0790869e-6)">
      <g
         id="Layer_2"
         transform="matrix(0.01575344,0,0,0.01575344,-6.7544437,-3.0593173)">
        <g
           id="Layer_1-2">
          <g
             id="g1060">
            <defs
               id="defs1040">
              <path
                 id="path1161"
                 d="M 670.2,916.7 C 499.5,828.4 434,629.4 491.9,450.6 c 3.7,-11.4 -2,-23.7 -13.1,-28.3 l -3.3,-1.4 -5.4,11.4 c -6,12.6 -11.5,25.5 -16.2,38.7 -78.9,218.3 34.1,459.1 252.4,538 1.3,0.5 2.6,0.9 4,1.4 97.6,18.4 192.5,14.6 265.5,-22.9 75,-38.6 127.6,-112.6 176.7,-210.1 -15.9,29.6 -36.1,56.6 -59.9,80.4 -111.5,111.4 -284.3,130.4 -422.4,58.9 z" />
            </defs>
            <clipPath
               id="SVGID_00000145058751107801603890000003099420144833037987_-9">
              <use
                 xlink:href="#SVGID_1_-6"
                 style="overflow:visible"
                 id="use1042"
                 x="0"
                 y="0"
                 width="100%"
                 height="100%" />
            </clipPath>
            <g
               clip-path="url(#SVGID_00000145058751107801603890000003099420144833037987_)"
               id="g1058">
              <linearGradient
                 id="linearGradient1170"
                 gradientUnits="userSpaceOnUse"
                 x1="137.0768"
                 y1="1133.693"
                 x2="580.65948"
                 y2="385.81381"
                 gradientTransform="matrix(1,0,0,-1,454,1496)">
                <stop
                   offset="0.14"
                   style="stop-color:#FFCD02"
                   id="stop1045" />
                <stop
                   offset="0.37"
                   style="stop-color:#FF963B"
                   id="stop1047" />
                <stop
                   offset="0.7"
                   style="stop-color:#FF6373"
                   id="stop1049" />
                <stop
                   offset="1"
                   style="stop-color:#FF4295"
                   id="stop1051" />
              </linearGradient>
              <rect
                 x="419"
                 y="409.10001"
                 style="fill:url(#SVGID_00000053535181750812256720000010007445397408363157_)"
                 width="780"
                 height="641.40002"
                 id="rect1054" />
              <ellipse
                 class="st2"
                 cx="848.90002"
                 cy="604.09998"
                 rx="397.79999"
                 ry="393.79999"
                 id="ellipse1056" />
            </g>
          </g>
          <g
             id="g1081">
            <defs
               id="defs1063">
              <path
                 id="path1176"
                 d="m 610.5,774.8 c 113.4,116.1 304,149 426,26.9 60.2,-145.3 32.1,-233.8 -54.9,-280.1 38.4,51.3 43.9,120.2 14.1,176.9 -63,120.6 -243.8,113.9 -331.6,24.1 C 621.3,678.8 594.5,621.7 588.2,560.7 561.5,408.3 621.7,289 767.4,203.1 653.9,228.7 569.7,308.3 528.2,425.9 c -39.3,122.5 -7.6,256.8 82.3,348.9 z" />
            </defs>
            <clipPath
               id="SVGID_00000068664196203460030910000014090149601466087040_-8">
              <use
                 xlink:href="#SVGID_00000068675346670729329550000011491456814861807038_-8"
                 style="overflow:visible"
                 id="use1065"
                 x="0"
                 y="0"
                 width="100%"
                 height="100%" />
            </clipPath>
            <g
               clip-path="url(#SVGID_00000068664196203460030910000014090149601466087040_)"
               id="g1079">
              <linearGradient
                 id="linearGradient1184"
                 gradientUnits="userSpaceOnUse"
                 x1="4.4724002"
                 y1="1277.2576"
                 x2="687.6275"
                 y2="594.10248"
                 gradientTransform="matrix(1,0,0,-1,454,1496)">
                <stop
                   offset="0"
                   style="stop-color:#1B59D2"
                   id="stop1068" />
                <stop
                   offset="0.51"
                   style="stop-color:#4E9BF2"
                   id="stop1070" />
                <stop
                   offset="0.98"
                   style="stop-color:#1B59D2"
                   id="stop1072" />
              </linearGradient>
              <rect
                 x="497.5"
                 y="179.8"
                 style="fill:url(#SVGID_00000139994816362256051150000007856331790765846158_)"
                 width="605.20001"
                 height="761.09998"
                 id="rect1075" />
              <path
                 class="st2"
                 d="m 1099.2,525.5 c 0,195.5 -119.7,305.6 -257,305.6 -171.3,0 -298.9,-138.1 -298.9,-316.9 0,-178.8 138.9,-324 310.2,-324 171.3,0 245.7,156.5 245.7,335.3 z"
                 id="path1077" />
            </g>
          </g>
          <g
             id="g1102">
            <defs
               id="defs1084">
              <path
                 id="path1190"
                 d="m 794.5,468.9 c 69.2,-22.5 141.5,-8.1 187,52.7 44,33.6 67.7,82 71.4,145.5 2.2,39.2 -3.3,84 -16.5,134.6 103.7,-103.7 103.7,-271.9 0,-375.7 0,0 0,0 0,0 C 934,323.6 816.3,331.5 695.2,394.2 l -7.5,3.9 6.3,193.4 c 9.5,-28.4 31.3,-30.5 47.5,-50.7 17,-21.1 28.7,-59.7 53,-71.9 z" />
            </defs>
            <clipPath
               id="SVGID_00000084493024695181474370000013775551965658988455_-1">
              <use
                 xlink:href="#SVGID_00000124133339070055173020000016825726520457174204_-5"
                 style="overflow:visible"
                 id="use1086"
                 x="0"
                 y="0"
                 width="100%"
                 height="100%" />
            </clipPath>
            <g
               clip-path="url(#SVGID_00000084493024695181474370000013775551965658988455_)"
               id="g1100">
              <linearGradient
                 id="linearGradient1198"
                 gradientUnits="userSpaceOnUse"
                 x1="168.8085"
                 y1="1093.7627"
                 x2="725.23059"
                 y2="772.50232"
                 gradientTransform="matrix(1,0,0,-1,454,1496)">
                <stop
                   offset="0"
                   style="stop-color:#50AFF3"
                   id="stop1089" />
                <stop
                   offset="0.33"
                   style="stop-color:#4064C5"
                   id="stop1091" />
                <stop
                   offset="1"
                   style="stop-color:#6C349F"
                   id="stop1093" />
              </linearGradient>
              <rect
                 x="673"
                 y="315.39999"
                 style="fill:url(#SVGID_00000096775183951085280650000013887515065972222652_)"
                 width="456.10001"
                 height="495"
                 id="rect1096" />
              <path
                 class="st7"
                 d="m 481.5,187.9 v 869.6 h 753.7 V 187.9 Z M 838,895.3 c -138.5,0 -225.8,-47.4 -225.8,-185.9 0,-140 103.7,-305.9 242.2,-305.9 114.1,0 234.2,102.7 234.2,241.1 0.1,138.5 -112.1,250.7 -250.6,250.7 0.1,0 0,0 0,0 z"
                 id="path1098" />
            </g>
          </g>
          <g
             id="g1123">
            <defs
               id="defs1105">
              <path
                 id="path1204"
                 d="m 848.6,269 c 190.5,-0.1 344.9,154.2 345.1,344.6 0,57.2 -14.2,113.5 -41.3,163.8 -97,192.4 -244.4,270.1 -442.3,233 219,76.4 458.4,-39.1 534.9,-258 76.4,-219 -39.1,-458.4 -258,-534.9 -40.1,-14 -82.2,-21.9 -124.7,-23.2 -4.6,-0.1 -9.2,-0.1 -13.7,-0.1 -27.3,0 -54.5,3 -81.1,8.9 C 610,289.5 550.2,408.7 588.2,560.7 576,445.1 638.4,334.5 743.7,285.3 l 15.4,-4.5 c 29.2,-7.9 59.3,-11.8 89.5,-11.8 z" />
            </defs>
            <clipPath
               id="SVGID_00000099661357791914082750000015154533892400370601_-5">
              <use
                 xlink:href="#SVGID_00000086691758994419556740000008251830637647227051_-9"
                 style="overflow:visible"
                 id="use1107"
                 x="0"
                 y="0"
                 width="100%"
                 height="100%" />
            </clipPath>
            <g
               clip-path="url(#SVGID_00000099661357791914082750000015154533892400370601_)"
               id="g1121">
              <linearGradient
                 id="linearGradient1212"
                 gradientUnits="userSpaceOnUse"
                 x1="287.52621"
                 y1="1379.9747"
                 x2="649.98682"
                 y2="384.11929"
                 gradientTransform="matrix(1,0,0,-1,454,1496)">
                <stop
                   offset="0"
                   style="stop-color:#A700BA"
                   id="stop1110" />
                <stop
                   offset="0.49"
                   style="stop-color:#C00C95"
                   id="stop1112" />
                <stop
                   offset="0.86"
                   style="stop-color:#DB1B62"
                   id="stop1114" />
              </linearGradient>
              <rect
                 x="559.5"
                 y="182.3"
                 style="fill:url(#SVGID_00000129176651838632943110000014686767742153261502_)"
                 width="726.5"
                 height="863.29999"
                 id="rect1117" />
              <path
                 class="st10"
                 d="m 393.6,18.1 v 1135.8 h 934.5 V 18.1 Z m 464.1,1003 C 651,1021.1 483.4,843 483.4,623.4 483.4,403.8 651,225.8 857.7,225.8 c 206.7,0 374.3,178.1 374.3,397.6 0,219.5 -167.6,397.7 -374.3,397.7 z"
                 id="path1119" />
            </g>
          </g>
          <g
             id="g1144">
            <defs
               id="defs1126">
              <path
                 id="path1218"
                 d="M 799.1,760.2 794.5,469 c -22.5,11.1 -42.5,26.8 -58.7,45.9 -17.7,20.9 -31.6,46.5 -41.7,76.6 l 3.8,117.1 3.9,3.7 c 31.7,30.7 65.7,41.1 97.3,47.9 z" />
            </defs>
            <clipPath
               id="SVGID_00000101080994678384537080000012159139783534266518_-5">
              <use
                 xlink:href="#SVGID_00000017504619482096579160000002562451376853608382_-5"
                 style="overflow:visible"
                 id="use1128"
                 x="0"
                 y="0"
                 width="100%"
                 height="100%" />
            </clipPath>
            <g
               clip-path="url(#SVGID_00000101080994678384537080000012159139783534266518_)"
               id="g1142">
              <linearGradient
                 id="linearGradient1226"
                 gradientUnits="userSpaceOnUse"
                 x1="292.63449"
                 y1="1030.6536"
                 x2="292.63449"
                 y2="732.23932"
                 gradientTransform="matrix(1,0,0,-1,454,1496)">
                <stop
                   offset="0"
                   style="stop-color:#1C58D2"
                   id="stop1131" />
                <stop
                   offset="0.33"
                   style="stop-color:#5734CA"
                   id="stop1133" />
                <stop
                   offset="1"
                   style="stop-color:#A203BC"
                   id="stop1135" />
              </linearGradient>
              <rect
                 x="689.20001"
                 y="465.29999"
                 style="fill:url(#SVGID_00000109712838896794062370000010711819726496527546_)"
                 width="114.9"
                 height="298.39999"
                 id="rect1138" />
              <rect
                 x="747.79999"
                 y="420"
                 transform="matrix(0.9996,-0.02998651,0.02998651,0.9996,-17.5148,23.9321)"
                 class="st2"
                 width="82.800003"
                 height="351.79999"
                 id="rect1140" />
            </g>
          </g>
        </g>
      </g>
      <animateTransform
         attributeType="XML"
         attributeName="transform"
         type="translate"
         fill="freeze"
         from="-6.7544437 0"
         to="251.0744426 0"
         dur="5s"
         repeatCount="indefinite" />
    </g>
  </g>
  <style
     type="text/css"
     id="style1037">
	.st0{clip-path:url(#SVGID_00000060007847652082710140000006795427762608792966_);}
	.st1{fill:url(#SVGID_00000078726619705516566400000004006009668568883892_);}
	.st2{opacity:0.1;enable-background:new    ;}
	.st3{clip-path:url(#SVGID_00000090290318917500506660000002052061269494477225_);}
	.st4{fill:url(#SVGID_00000009568195812020242300000012744760633989959095_);}
	.st5{clip-path:url(#SVGID_00000053520416364353932890000009936029084590913421_);}
	.st6{fill:url(#SVGID_00000107575271690689436820000014868075285764917181_);}
	.st7{opacity:0.1;stroke:#000000;stroke-width:2.071171e-02;stroke-miterlimit:10;enable-background:new    ;}
	.st8{clip-path:url(#SVGID_00000139285236283598627790000004627246110805404044_);}
	.st9{fill:url(#SVGID_00000116941316695414986120000001909013826672748438_);}
	
		.st10{opacity:0.1;fill-rule:evenodd;clip-rule:evenodd;stroke:#000000;stroke-width:2.071171e-02;stroke-miterlimit:10;enable-background:new    ;}
	.st11{clip-path:url(#SVGID_00000078736506695678094360000016217025963104872601_);}
	.st12{fill:url(#SVGID_00000119106271750280630620000002025101925913077637_);}
</style>
</svg>
