<?xml version="1.0" encoding="UTF-8" standalone="no"?>
<svg
   xmlns:dc="http://purl.org/dc/elements/1.1/"
   xmlns:cc="http://creativecommons.org/ns#"
   xmlns:rdf="http://www.w3.org/1999/02/22-rdf-syntax-ns#"
   xmlns:svg="http://www.w3.org/2000/svg"
   xmlns="http://www.w3.org/2000/svg"
   xmlns:sodipodi="http://sodipodi.sourceforge.net/DTD/sodipodi-0.dtd"
   xmlns:inkscape="http://www.inkscape.org/namespaces/inkscape"
   width="150"
   height="27"
   viewBox="0 0 39.687501 7.1437498"
   version="1.1"
   id="svg8"
   inkscape:version="1.0.1 (3bc2e813f5, 2020-09-07)"
   sodipodi:docname="trippy_logo.svg">
  <defs
     id="defs2" />
  <sodipodi:namedview
     id="base"
     pagecolor="#ffffff"
     bordercolor="#666666"
     borderopacity="1.0"
     inkscape:pageopacity="0.0"
     inkscape:pageshadow="2"
     inkscape:zoom="3.6658149"
     inkscape:cx="96.47412"
     inkscape:cy="34.884611"
     inkscape:document-units="px"
     inkscape:current-layer="layer1"
     inkscape:document-rotation="0"
     showgrid="false"
     units="px"
     inkscape:window-width="1920"
     inkscape:window-height="1017"
     inkscape:window-x="-8"
     inkscape:window-y="-8"
     inkscape:window-maximized="1" />
  <metadata
     id="metadata5">
    <rdf:RDF>
      <cc:Work
         rdf:about="">
        <dc:format>image/svg+xml</dc:format>
        <dc:type
           rdf:resource="http://purl.org/dc/dcmitype/StillImage" />
        <dc:title />
      </cc:Work>
    </rdf:RDF>
  </metadata>
  <g
     inkscape:label="Layer 1"
     inkscape:groupmode="layer"
     id="layer1">
    <path
       id="path885"
       style="font-style:normal;font-variant:normal;font-weight:normal;font-stretch:normal;font-size:12.7px;line-height:1.25;font-family:'Sigmar One';-inkscape-font-specification:'Sigmar One, Normal';font-variant-ligatures:normal;font-variant-caps:normal;font-variant-numeric:normal;font-variant-east-asian:normal;fill:#000000;fill-opacity:1;stroke-width:0.683819"
       d="M 140.89258 0.43554688 C 140.6081 0.43554688 140.41214 0.52416136 140.30273 0.69921875 C 140.19333 0.80862967 140.09339 1.0592457 140.00586 1.453125 C 139.98399 1.5406537 139.87467 1.781902 139.67773 2.1757812 C 139.28385 3.0729507 138.94462 3.8720358 138.66016 4.5722656 C 138.13498 5.6663746 137.77506 6.3655244 137.57812 6.671875 C 137.42493 6.912578 137.31564 7.0332031 137.25 7.0332031 C 137.1187 7.0332031 136.95475 6.8918903 136.75781 6.6074219 C 136.45146 6.1916605 136.0123 5.4792367 135.44336 4.4726562 C 135.33395 4.2975976 135.23597 4.1336429 135.14844 3.9804688 C 135.0609 3.8272937 134.97425 3.6973016 134.88672 3.5878906 L 134.65625 3.3242188 L 134.39453 2.9628906 C 134.35076 2.9191262 134.26216 2.809823 134.13086 2.6347656 C 134.02145 2.459708 133.94416 2.3070742 133.90039 2.1757812 C 133.59405 1.6943731 133.37544 1.3891055 133.24414 1.2578125 C 133.09096 1.0389907 132.7857 0.92773438 132.32617 0.92773438 L 132.25977 0.92773438 L 132.16211 0.92773438 L 132.0957 0.9609375 C 131.98629 0.9828197 131.60373 1.1034438 130.94727 1.3222656 L 129.76562 1.5859375 C 129.65621 1.6297019 129.28497 1.7163633 128.65039 1.8476562 C 128.36593 1.9351851 128.15669 1.9785156 128.02539 1.9785156 C 127.91599 1.9785156 127.818 2.0124784 127.73047 2.078125 L 127.27148 2.2421875 C 126.46184 2.4610106 126.00198 2.5816347 125.89258 2.6035156 L 125.30078 2.8984375 C 125.03819 3.0297307 124.81022 3.1597226 124.61328 3.2910156 C 124.13187 3.6411303 123.89063 3.9257092 123.89062 4.1445312 C 123.89063 4.3414708 124.01125 4.7806368 124.25195 5.4589844 C 124.44889 6.0716856 124.68819 6.6728531 124.97266 7.2636719 C 125.21336 7.9420195 125.4226 8.413195 125.59766 8.6757812 C 126.16659 9.857419 126.90907 11.169057 127.82812 12.613281 C 128.55024 13.860566 129.26266 14.921588 129.96289 15.796875 C 129.96289 15.840639 129.98361 15.885934 130.02734 15.929688 L 130.06055 15.929688 L 130.12695 15.929688 C 130.12695 15.907817 130.18161 15.896484 130.29102 15.896484 C 130.29102 16.202835 130.45497 16.519423 130.7832 16.847656 C 131.13332 17.197771 131.30859 17.537002 131.30859 17.865234 C 131.30859 18.062175 131.26527 18.280781 131.17773 18.521484 C 131.13397 18.609013 130.84939 19.09151 130.32422 19.966797 C 130.12728 20.229383 130.00666 20.425347 129.96289 20.556641 C 129.85349 20.841109 129.73286 21.093678 129.60156 21.3125 C 129.49213 21.531321 129.40353 21.715964 129.33789 21.869141 C 129.14095 22.328666 129.04297 22.767832 129.04297 23.183594 C 129.04297 23.314887 129.13157 23.444879 129.30664 23.576172 L 130.06055 24.037109 C 130.21372 24.080874 130.44365 24.167535 130.75 24.298828 C 131.40646 24.561414 131.90965 24.748011 132.25977 24.857422 C 132.43482 24.923068 132.71939 25.021073 133.11328 25.152344 C 133.50715 25.283647 133.79173 25.360942 133.9668 25.382812 C 134.09809 25.426577 134.26205 25.447266 134.45898 25.447266 C 134.52465 25.49103 134.61325 25.513672 134.72266 25.513672 L 134.88672 25.513672 L 136.03516 25.841797 C 136.25398 25.929326 136.74584 26.038629 137.51172 26.169922 C 137.53359 26.257451 137.58825 26.323423 137.67578 26.367188 C 137.67578 26.410952 137.70975 26.431641 137.77539 26.431641 L 137.87305 26.400391 C 137.89489 26.37852 137.91753 26.367188 137.93945 26.367188 L 138.00391 26.367188 L 138.00391 26.564453 C 138.22273 26.564453 138.35467 26.519169 138.39844 26.431641 C 139.60196 24.177776 140.92492 21.639208 142.36914 18.816406 C 142.41286 18.772642 142.44683 18.751953 142.46875 18.751953 L 142.59961 18.71875 L 145.55273 12.023438 L 148.57422 5.359375 C 148.85869 4.8560848 149 4.3095689 149 3.71875 C 148.628 3.237342 147.91753 2.7115149 146.86719 2.1425781 C 145.83873 1.6174058 144.76638 1.191514 143.65039 0.86328125 C 142.51252 0.57881289 141.59281 0.43554687 140.89258 0.43554688 z M 26.470703 0.92773438 C 26.011176 0.92773438 25.683267 1.3216165 25.486328 2.109375 C 25.333154 2.6783117 25.255859 3.5773322 25.255859 4.8027344 C 25.255859 5.6561396 25.29919 6.3552894 25.386719 6.9023438 C 25.430483 7.7776312 25.453125 8.4447711 25.453125 8.9042969 L 25.419922 9.2988281 L 25.386719 9.8886719 C 25.386719 10.17314 25.36603 10.382379 25.322266 10.513672 C 25.322266 10.644965 25.310933 10.731626 25.289062 10.775391 L 25.289062 10.875 C 25.289062 11.662759 25.321071 12.505174 25.386719 13.402344 L 25.453125 14.123047 C 25.475019 14.341869 25.49766 14.605759 25.519531 14.912109 C 25.541402 15.21846 25.552734 15.567058 25.552734 15.960938 L 25.650391 17.175781 C 25.759802 18.576241 25.837095 19.561923 25.880859 20.130859 C 25.858977 19.846391 25.902297 20.370265 26.011719 21.705078 C 26.055483 22.055193 26.076172 22.296441 26.076172 22.427734 L 26.076172 22.691406 C 26.098043 22.757064 26.109375 22.800395 26.109375 22.822266 L 26.208984 23.083984 L 27.390625 23.478516 L 27.685547 23.478516 L 28.275391 23.478516 L 28.998047 23.478516 C 29.12934 23.52228 29.304615 23.544922 29.523438 23.544922 C 30.311196 23.544922 31.449512 23.499638 32.9375 23.412109 C 34.469253 23.324581 35.616936 23.249239 36.382812 23.183594 L 36.416016 23.214844 C 36.45978 23.214844 36.503111 23.226176 36.546875 23.248047 L 36.744141 23.248047 C 36.875434 23.248047 36.973417 23.106734 37.039062 22.822266 C 37.148472 22.231447 37.203125 21.455004 37.203125 20.492188 C 37.203125 19.485607 37.237089 18.686522 37.302734 18.095703 C 37.324628 17.986291 37.34727 17.897677 37.369141 17.832031 C 37.412905 17.766383 37.467558 17.734375 37.533203 17.734375 C 37.620732 17.734375 37.707393 17.800347 37.794922 17.931641 C 37.904333 18.106698 38.036279 18.270653 38.189453 18.423828 C 38.430159 18.752061 38.614803 19.057328 38.746094 19.341797 L 41.537109 23.478516 L 41.667969 23.609375 L 41.734375 23.642578 C 41.778092 23.642578 41.81011 23.66522 41.832031 23.708984 C 41.853927 23.708984 41.897253 23.763637 41.962891 23.873047 C 42.181713 24.113752 42.454971 24.332358 42.783203 24.529297 C 42.848841 24.551168 42.926138 24.560547 43.013672 24.560547 L 43.111328 24.560547 L 43.210938 24.560547 C 43.27655 24.560547 43.319876 24.505894 43.341797 24.396484 L 43.505859 24.396484 C 43.549626 24.396484 43.615591 24.387105 43.703125 24.365234 C 43.790659 24.343353 43.867956 24.309389 43.933594 24.265625 C 44.196185 24.221861 44.38083 24.167208 44.490234 24.101562 C 45.081048 23.926505 45.442918 23.80588 45.574219 23.740234 C 45.639831 23.718341 45.683157 23.697652 45.705078 23.675781 C 45.748795 23.65391 45.780813 23.642578 45.802734 23.642578 C 46.306024 23.46752 46.7772 23.260234 47.214844 23.019531 L 48.429688 22.361328 C 48.604745 22.208153 48.855359 22.044198 49.183594 21.869141 C 49.533704 21.694082 49.840927 21.509439 50.103516 21.3125 C 50.453621 21.049914 50.715557 20.831308 50.890625 20.65625 C 51.065693 20.481193 51.154297 20.283275 51.154297 20.064453 C 51.154297 19.911278 51.077 19.692671 50.923828 19.408203 C 50.72689 18.992441 50.278356 18.336623 49.578125 17.439453 L 48.035156 15.535156 C 47.947622 15.425746 47.860971 15.327763 47.773438 15.240234 C 47.685904 15.130822 47.608607 15.021519 47.542969 14.912109 L 47.083984 14.583984 C 46.865167 14.408928 46.712534 14.265662 46.625 14.15625 C 46.406186 13.937427 46.23091 13.796114 46.099609 13.730469 C 46.79984 13.402236 47.423649 12.96307 47.970703 12.416016 C 48.53964 11.847079 48.976852 11.225223 49.283203 10.546875 C 49.655199 9.69347 49.841797 8.7624398 49.841797 7.7558594 C 49.841797 6.8805722 49.675888 6.0607983 49.347656 5.2949219 C 49.041305 4.5290455 48.560763 3.8712734 47.904297 3.3242188 C 46.460074 2.0331699 44.326707 1.3226992 41.503906 1.1914062 C 40.825559 1.1914063 39.611905 1.1687644 37.861328 1.125 L 36.580078 1.09375 C 35.442205 1.0499856 34.588468 1.0273438 34.019531 1.0273438 C 31.459316 0.96169714 28.94339 0.92773438 26.470703 0.92773438 z M 85.455078 1.3554688 C 84.601673 1.3554687 83.51801 1.3781106 82.205078 1.421875 L 80.990234 1.453125 C 80.093065 1.4750059 78.824758 1.4863281 77.183594 1.4863281 C 76.045719 1.4863281 75.126009 1.4750059 74.425781 1.453125 L 70.650391 1.421875 C 70.45345 1.421875 70.257485 1.5198573 70.060547 1.7167969 C 69.885479 1.8918544 69.796875 2.078451 69.796875 2.2753906 L 69.796875 9.4960938 C 69.796875 11.881252 69.830847 14.144609 69.896484 16.289062 C 69.940251 17.777051 69.960938 19.473203 69.960938 21.376953 C 69.960938 22.011537 70.015595 22.450703 70.125 22.691406 C 70.234412 23.172814 70.475663 23.412109 70.847656 23.412109 L 73.408203 23.412109 C 74.305372 23.368345 75.50966 23.347656 77.019531 23.347656 C 77.391527 23.325785 78.058667 23.314453 79.021484 23.314453 C 79.677948 23.314453 80.126482 23.21647 80.367188 23.019531 C 80.673538 22.822591 80.826172 22.362737 80.826172 21.640625 L 80.826172 20.556641 C 80.848093 20.272171 80.859375 20.030923 80.859375 19.833984 C 80.859375 19.265048 80.848093 18.729853 80.826172 18.226562 L 85.322266 18.226562 C 88.276359 18.226562 90.498341 17.52546 91.986328 16.125 C 93.671257 14.637012 94.513672 12.230388 94.513672 8.9042969 C 94.513672 6.9349005 93.999165 5.3706931 92.970703 4.2109375 C 92.051653 3.1387105 90.858685 2.3829561 89.392578 1.9453125 C 88.145294 1.5514332 86.833656 1.3554688 85.455078 1.3554688 z M 112.99219 1.3554688 C 112.13878 1.3554687 111.05707 1.3781106 109.74414 1.421875 L 108.5293 1.453125 C 107.63213 1.4750059 106.36186 1.4863281 104.7207 1.4863281 C 103.58283 1.4863281 102.66507 1.4750059 101.96484 1.453125 L 98.189453 1.421875 C 97.992512 1.421875 97.796548 1.5198573 97.599609 1.7167969 C 97.424542 1.8918544 97.335938 2.078451 97.335938 2.2753906 L 97.335938 9.4960938 C 97.335938 11.881252 97.369909 14.144609 97.435547 16.289062 C 97.479314 17.777051 97.5 19.473203 97.5 21.376953 C 97.5 22.011537 97.554658 22.450703 97.664062 22.691406 C 97.773475 23.172814 98.014723 23.412109 98.386719 23.412109 L 100.94727 23.412109 C 101.84443 23.368345 103.04677 23.347656 104.55664 23.347656 C 104.92864 23.325785 105.59773 23.314453 106.56055 23.314453 C 107.21701 23.314453 107.66554 23.21647 107.90625 23.019531 C 108.2126 22.822591 108.36523 22.362737 108.36523 21.640625 L 108.36523 20.556641 C 108.38716 20.272171 108.39844 20.030923 108.39844 19.833984 C 108.39844 19.265048 108.38716 18.729853 108.36523 18.226562 L 112.86133 18.226562 C 115.81542 18.226562 118.0374 17.52546 119.52539 16.125 C 121.21032 14.637012 122.05273 12.230388 122.05273 8.9042969 C 122.05273 6.9349005 121.53823 5.3706931 120.50977 4.2109375 C 119.59071 3.1387105 118.39775 2.3829561 116.93164 1.9453125 C 115.68436 1.5514332 114.37077 1.3554688 112.99219 1.3554688 z M 62.132812 1.4785156 C 61.935873 1.4839859 61.767235 1.497649 61.625 1.5195312 C 61.559362 1.5195312 61.504704 1.5308534 61.460938 1.5527344 C 61.417171 1.5746153 61.362513 1.5859375 61.296875 1.5859375 L 58.013672 1.5859375 C 57.269677 1.6078184 56.142681 1.6171875 54.632812 1.6171875 C 54.348343 1.6171875 54.207031 1.7264907 54.207031 1.9453125 L 54.207031 12.318359 C 54.141393 13.653173 54.107422 15.010094 54.107422 16.388672 L 54.074219 20.458984 L 54.074219 20.884766 C 54.074219 21.147353 54.085501 21.356591 54.107422 21.509766 C 54.151189 21.991174 54.217154 22.428386 54.304688 22.822266 C 54.370325 23.019205 54.468309 23.18316 54.599609 23.314453 C 54.730905 23.423863 54.874172 23.478516 55.027344 23.478516 L 55.847656 23.445312 L 57.0625 23.445312 L 58.308594 23.445312 C 58.636785 23.445312 58.812063 23.43398 58.833984 23.412109 L 61.853516 23.412109 L 62.117188 23.28125 C 62.139058 23.28125 62.237042 23.303892 62.412109 23.347656 C 62.412109 23.391421 62.489406 23.412109 62.642578 23.412109 L 62.740234 23.412109 L 63.068359 23.412109 C 63.177769 23.368345 63.407697 23.347656 63.757812 23.347656 C 64.501807 23.303892 65.070964 23.28125 65.464844 23.28125 C 65.618015 22.974899 65.695312 22.667679 65.695312 22.361328 C 65.804717 21.442277 65.859375 20.326603 65.859375 19.013672 L 65.859375 16.914062 L 65.890625 16.388672 C 65.890625 15.885382 65.901907 15.468858 65.923828 15.140625 L 65.957031 13.664062 C 66.000798 13.292065 66.023438 12.777559 66.023438 12.121094 C 66.023438 11.508393 66.034719 11.114511 66.056641 10.939453 L 66.056641 10.447266 L 66.056641 4.046875 C 66.056641 3.3466452 66.045359 2.8867905 66.023438 2.6679688 C 65.957775 2.3835003 65.86917 2.1422521 65.759766 1.9453125 C 65.650353 1.7921373 65.49772 1.694155 65.300781 1.6503906 C 65.125724 1.6066262 64.873154 1.5859375 64.544922 1.5859375 C 64.413621 1.6297019 64.32697 1.6503906 64.283203 1.6503906 C 64.217565 1.694155 64.119582 1.6734663 63.988281 1.5859375 C 63.572521 1.5202909 63.178637 1.4863281 62.806641 1.4863281 C 62.554996 1.4753864 62.329752 1.4730454 62.132812 1.4785156 z M 2.6738281 1.8476562 C 2.2361845 1.8476562 1.9082749 1.8796659 1.6894531 1.9453125 C 1.5143956 1.9890769 1.3617617 2.0663705 1.2304688 2.1757812 C 1.0991758 2.2633101 1.0332031 2.3726133 1.0332031 2.5039062 L 1.0332031 2.7988281 L 1.0332031 3.2910156 C 1.0113222 3.4223088 1 3.5975845 1 3.8164062 L 1 4.2773438 C 1 5.5027457 1.0546516 6.4431437 1.1640625 7.0996094 C 1.2515912 7.6685459 1.3722153 8.1170797 1.5253906 8.4453125 C 1.7004481 8.7516631 1.9303754 8.9042969 2.2148438 8.9042969 L 5.8574219 8.9042969 L 5.9570312 9.0351562 C 5.9570312 10.632556 5.945699 11.814202 5.9238281 12.580078 C 5.8581828 14.965236 5.8242187 17.077912 5.8242188 18.916016 C 5.8242188 20.819765 5.9881737 22.133357 6.3164062 22.855469 C 6.4695817 23.27123 6.699509 23.478516 7.0058594 23.478516 C 8.143733 23.478516 8.931497 23.467183 9.3691406 23.445312 L 12.816406 23.412109 C 13.166521 23.368345 13.767689 23.347656 14.621094 23.347656 L 15.441406 23.314453 C 15.550817 23.292572 15.748735 23.2266 16.033203 23.117188 C 16.339554 22.920248 16.492188 22.449072 16.492188 21.705078 L 16.492188 18.587891 C 16.535952 18.172129 16.579282 17.504989 16.623047 16.585938 L 16.689453 15.601562 C 16.776982 13.457109 16.820312 12.066224 16.820312 11.431641 C 16.842183 11.256583 16.853516 11.005967 16.853516 10.677734 L 16.853516 9.5605469 L 16.853516 9.0683594 C 16.853516 9.0245849 16.864848 8.992574 16.886719 8.9707031 C 16.90859 8.9269261 16.919922 8.8929646 16.919922 8.8710938 C 16.941805 8.7835649 17.051108 8.7402344 17.248047 8.7402344 L 18.232422 8.7402344 C 18.495008 8.7839988 18.877569 8.8066406 19.380859 8.8066406 L 20.464844 8.8066406 L 21.513672 8.8066406 C 21.732494 8.8066406 21.907769 8.7839988 22.039062 8.7402344 C 22.236001 8.6527048 22.335938 8.4887499 22.335938 8.2480469 L 22.335938 2.8320312 C 22.335937 2.6350917 22.313296 2.4937788 22.269531 2.40625 C 22.247648 2.2968392 22.160987 2.2082247 22.007812 2.1425781 C 21.920283 2.0769303 21.777017 2.0335997 21.580078 2.0117188 C 21.38314 1.9898353 21.230506 1.9671934 21.121094 1.9453125 C 20.858508 1.9234316 20.300671 1.9140625 19.447266 1.9140625 L 7.6308594 1.9140625 L 6.4160156 1.8808594 C 6.1315472 1.8589784 5.7150234 1.8476563 5.1679688 1.8476562 L 2.6738281 1.8476562 z M 37.630859 4.4726562 C 38.024737 4.4726563 38.341326 4.5725927 38.582031 4.7695312 C 39.129075 5.0758819 39.490948 5.5790671 39.666016 6.2792969 C 39.841083 6.8263515 39.927734 7.3502254 39.927734 7.8535156 L 39.927734 8.2148438 C 39.927734 8.8494269 39.907048 9.3978961 39.863281 9.8574219 C 39.819517 10.64518 39.610277 11.34433 39.238281 11.957031 C 38.844402 12.635379 38.309207 12.974609 37.630859 12.974609 L 37.138672 12.974609 L 36.908203 12.941406 C 36.88631 12.941406 36.865621 12.932027 36.84375 12.910156 C 36.821879 12.888263 36.810547 12.865621 36.810547 12.84375 C 36.810547 12.012227 36.831236 10.962526 36.875 9.6933594 L 36.908203 8.7070312 C 36.908203 8.1162125 36.951534 7.6036592 37.039062 7.1660156 C 37.060946 6.1156708 37.170249 5.3485955 37.367188 4.8671875 C 37.432835 4.6046013 37.52145 4.4726562 37.630859 4.4726562 z M 82.597656 4.4726562 C 82.816468 4.4726562 83.014385 4.5725927 83.189453 4.7695312 C 83.364516 4.9227077 83.50583 5.118672 83.615234 5.359375 C 83.724639 5.5781968 83.824576 5.8854177 83.912109 6.2792969 C 84.021514 6.9795267 84.076172 7.5034006 84.076172 7.8535156 L 84.076172 8.2148438 C 84.076172 9.0026021 84.053533 9.7150259 84.009766 10.349609 C 83.922247 11.509365 83.790302 12.383791 83.615234 12.974609 C 83.396412 13.849897 83.057181 14.287109 82.597656 14.287109 L 81.679688 14.287109 L 81.285156 14.255859 C 81.219544 14.233966 81.176218 14.211324 81.154297 14.189453 L 81.121094 14.15625 C 81.121094 12.143089 81.175752 10.535551 81.285156 9.3320312 C 81.328923 8.5442726 81.383581 7.9524732 81.449219 7.5585938 C 81.646157 6.2018986 81.864763 5.3274729 82.105469 4.9335938 C 82.171132 4.8023005 82.237097 4.6929976 82.302734 4.6054688 C 82.390268 4.5179399 82.488252 4.4726562 82.597656 4.4726562 z M 110.13672 4.4726562 C 110.35553 4.4726562 110.55345 4.5725927 110.72852 4.7695312 C 110.90358 4.9227077 111.04489 5.118672 111.1543 5.359375 C 111.2637 5.5781968 111.36364 5.8854177 111.45117 6.2792969 C 111.56058 6.9795267 111.61523 7.5034006 111.61523 7.8535156 L 111.61523 8.2148438 C 111.61523 9.0026021 111.5926 9.7150259 111.54883 10.349609 C 111.46131 11.509365 111.32936 12.383791 111.1543 12.974609 C 110.93547 13.849897 110.59624 14.287109 110.13672 14.287109 L 109.21875 14.287109 L 108.82422 14.255859 C 108.75861 14.233966 108.71528 14.211324 108.69336 14.189453 L 108.66016 14.15625 C 108.66016 12.143089 108.71481 10.535551 108.82422 9.3320312 C 108.86799 8.5442726 108.92264 7.9524732 108.98828 7.5585938 C 109.18522 6.2018986 109.40383 5.3274729 109.64453 4.9335938 C 109.71019 4.8023005 109.77616 4.6929976 109.8418 4.6054688 C 109.92933 4.5179399 110.02731 4.4726562 110.13672 4.4726562 z "
       transform="scale(0.26458333)" >
       <animate
            attributeName="fill"
            values="#ff8c00;#96bfe6;#ff8c00;#ff8c00"
            dur="0.8s"
            repeatCount="indefinite"/>
    </path>
  </g>
</svg>
