<?xml version="1.0" encoding="UTF-8" standalone="no"?>
<svg
   xmlns:dc="http://purl.org/dc/elements/1.1/"
   xmlns:cc="http://creativecommons.org/ns#"
   xmlns:rdf="http://www.w3.org/1999/02/22-rdf-syntax-ns#"
   xmlns:svg="http://www.w3.org/2000/svg"
   xmlns="http://www.w3.org/2000/svg"
   xmlns:sodipodi="http://sodipodi.sourceforge.net/DTD/sodipodi-0.dtd"
   xmlns:inkscape="http://www.inkscape.org/namespaces/inkscape"
   width="150"
   height="27"
   viewBox="0 0 39.687501 7.1437498"
   version="1.1"
   id="svg8"
   inkscape:version="1.0.1 (3bc2e813f5, 2020-09-07)"
   sodipodi:docname="trippy_logo.svg">
  <defs
     id="defs2" />
  <sodipodi:namedview
     id="base"
     pagecolor="#ffffff"
     bordercolor="#666666"
     borderopacity="1.0"
     inkscape:pageopacity="0.0"
     inkscape:pageshadow="2"
     inkscape:zoom="3.7613005"
     inkscape:cx="96.47412"
     inkscape:cy="34.884611"
     inkscape:document-units="px"
     inkscape:current-layer="layer1"
     inkscape:document-rotation="0"
     showgrid="false"
     units="px"
     inkscape:window-width="1920"
     inkscape:window-height="1017"
     inkscape:window-x="-8"
     inkscape:window-y="-8"
     inkscape:window-maximized="1" />
  <metadata
     id="metadata5">
    <rdf:RDF>
      <cc:Work
         rdf:about="">
        <dc:format>image/svg+xml</dc:format>
        <dc:type
           rdf:resource="http://purl.org/dc/dcmitype/StillImage" />
        <dc:title></dc:title>
      </cc:Work>
    </rdf:RDF>
  </metadata>
  <g
     inkscape:label="Layer 1"
     inkscape:groupmode="layer"
     id="layer1">
    <g
       id="g958"
       transform="matrix(0.68381818,0,0,0.68381818,-0.05820819,-0.04666515)">
      <path
         d="m 2.796143,9.15247 q -0.1778,0 -0.2667,-0.2413 -0.1905,-0.4191 -0.1905,-1.524 0,-1.0668 0.0381,-2.4511 0.0127,-0.4445 0.0127,-1.3716 l -0.0381,-0.0508 h -1.4097 q -0.1651,0 -0.2667,-0.1778 -0.0889,-0.1905 -0.1397,-0.5207 -0.0635,-0.381 -0.0635,-1.0922 v -0.1778 q 0,-0.127 0.0127,-0.2032 v -0.1905 -0.1143 q 0,-0.0762 0.0762,-0.127 0.0762,-0.0635 0.1778,-0.0889 0.127,-0.0381 0.381,-0.0381 h 0.9652 q 0.3175,0 0.4826,0.0127 l 0.4699,0.0127 h 4.572 q 0.4953,0 0.6477,0.0127 0.0635,0.0127 0.1778,0.0254 0.1143,0.0127 0.1651,0.0508 0.0889,0.0381 0.1016,0.1016 0.0254,0.0508 0.0254,0.1651 v 2.0955 q 0,0.1397 -0.1143,0.1905 -0.0762,0.0254 -0.2032,0.0254 h -0.4064 -0.4191 q -0.2921,0 -0.4445,-0.0254 h -0.381 q -0.1143,0 -0.127,0.0508 0,0.0127 -0.0127,0.0381 -0.0127,0.0127 -0.0127,0.0381 v 0.1905 0.4318 q 0,0.1905 -0.0127,0.2921 0,0.3683 -0.0508,1.6129 l -0.0254,0.381 q -0.0254,0.5334 -0.0508,0.7747 v 1.2065 q 0,0.4318 -0.1778,0.5461 -0.1651,0.0635 -0.2286,0.0762 l -0.3175,0.0127 q -0.4953,0 -0.6985,0.0254 l -1.3335,0.0127 q -0.254,0.0127 -0.9144,0.0127 z"
         id="path885"
         style="font-style:normal;font-variant:normal;font-weight:normal;font-stretch:normal;font-size:12.7px;line-height:1.25;font-family:'Sigmar One';-inkscape-font-specification:'Sigmar One, Normal';font-variant-ligatures:normal;font-variant-caps:normal;font-variant-numeric:normal;font-variant-east-asian:normal;fill:#000000;fill-opacity:1;stroke-width:0.264583" />
      <path
         d="m 16.728038,9.57157 q -0.0508,0 -0.0889,-0.0127 -0.1905,-0.1143 -0.3175,-0.254 -0.0381,-0.0635 -0.0508,-0.0635 -0.0127,-0.0254 -0.0381,-0.0254 l -0.0254,-0.0127 q -0.0508,-0.0508 -0.0508,-0.0508 l -1.0795,-1.6002 q -0.0762,-0.1651 -0.2159,-0.3556 -0.0889,-0.0889 -0.1524,-0.1905 -0.0508,-0.0762 -0.1016,-0.0762 -0.0381,0 -0.0635,0.0381 -0.0127,0.0381 -0.0254,0.1016 -0.0381,0.3429 -0.0381,0.9271 0,0.5588 -0.0635,0.9017 -0.0381,0.1651 -0.1143,0.1651 h -0.0762 q -0.0254,-0.0127 -0.0508,-0.0127 -0.0127,-0.0127 -0.0127,-0.0127 -0.4445,0.0381 -1.3335,0.0889 -0.8636,0.0508 -1.3208,0.0508 -0.127,0 -0.2032,-0.0254 h -0.2794 -0.2286 -0.1143 l -0.4572,-0.1524 -0.0381,-0.1016 q 0,-0.0127 -0.0127,-0.0508 0,-0.0381 0,-0.1016 0,-0.0762 -0.0254,-0.2794 -0.0635,-0.7747 -0.0508,-0.6096 -0.0254,-0.3302 -0.0889,-1.143 l -0.0381,-0.4699 q 0,-0.2286 -0.0127,-0.4064 -0.0127,-0.1778 -0.0254,-0.3048 l -0.0254,-0.2794 q -0.0381,-0.5207 -0.0381,-0.9779 0,-0.0127 0,-0.0381 0.0127,-0.0254 0.0127,-0.1016 0.0254,-0.0762 0.0254,-0.2413 l 0.0127,-0.2286 0.0127,-0.1524 q 0,-0.2667 -0.0254,-0.7747 -0.0508,-0.3175 -0.0508,-0.8128 0,-0.7112 0.0889,-1.0414 0.1143,-0.4572 0.381,-0.4572 1.4351,0 2.921,0.0381 0.3302,0 0.9906,0.0254 l 0.4953,0.0127 q 1.016,0.0254 1.4097,0.0254 1.6383,0.0762 2.4765,0.8255 0.381,0.3175 0.5588,0.762 0.1905,0.4445 0.1905,0.9525 0,0.5842 -0.2159,1.0795 -0.1778,0.3937 -0.508,0.7239 -0.3175,0.3175 -0.7239,0.508 0.0762,0.0381 0.2032,0.1651 0.0508,0.0635 0.1778,0.1651 l 0.1778,0.127 q 0.0381,0.0635 0.0889,0.127 0.0508,0.0508 0.1016,0.1143 l 0.5969,0.7366 q 0.4064,0.5207 0.5207,0.762 0.0889,0.1651 0.0889,0.254 0,0.127 -0.1016,0.2286 -0.1016,0.1016 -0.3048,0.254 -0.1524,0.1143 -0.3556,0.2159 -0.1905,0.1016 -0.2921,0.1905 l -0.4699,0.254 q -0.254,0.1397 -0.5461,0.2413 -0.0127,0 -0.0381,0.0127 -0.0127,0.0127 -0.0508,0.0254 -0.0762,0.0381 -0.4191,0.1397 -0.0635,0.0381 -0.2159,0.0635 -0.0381,0.0254 -0.0889,0.0381 -0.0508,0.0127 -0.0762,0.0127 h -0.0635 q -0.0127,0.0635 -0.0508,0.0635 h -0.0381 z m -2.0828,-4.4831 q 0.3937,0 0.6223,-0.3937 0.2159,-0.3556 0.2413,-0.8128 0.0254,-0.2667 0.0254,-0.635 v -0.1397 q 0,-0.2921 -0.1016,-0.6096 -0.1016,-0.4064 -0.4191,-0.5842 -0.1397,-0.1143 -0.3683,-0.1143 -0.0635,0 -0.1016,0.1524 -0.1143,0.2794 -0.127,0.889 -0.0508,0.254 -0.0508,0.5969 l -0.0127,0.381 q -0.0254,0.7366 -0.0254,1.2192 0,0.0127 0.0127,0.0254 0.0127,0.0127 0.0254,0.0127 l 0.0889,0.0127 z"
         id="path887"
         style="font-style:normal;font-variant:normal;font-weight:normal;font-stretch:normal;font-size:12.7px;line-height:1.25;font-family:'Sigmar One';-inkscape-font-specification:'Sigmar One, Normal';font-variant-ligatures:normal;font-variant-caps:normal;font-variant-numeric:normal;font-variant-east-asian:normal;fill:#000000;fill-opacity:1;stroke-width:0.264583" />
      <path
         d="m 21.376227,9.15247 q -0.0889,0 -0.1651,-0.0635 -0.0762,-0.0762 -0.1143,-0.1905 -0.0508,-0.2286 -0.0762,-0.508 -0.0127,-0.0889 -0.0127,-0.2413 v -0.1651 l 0.0127,-1.5748 q 0,-0.8001 0.0381,-1.5748 v -4.0132 q 0,-0.127 0.1651,-0.127 0.8763,0 1.3081,-0.0127 h 1.27 q 0.0381,0 0.0635,-0.0127 0.0254,-0.0127 0.0635,-0.0127 0.1651,-0.0254 0.4572,-0.0127 0.2159,0 0.4572,0.0381 0.0762,0.0508 0.1143,0.0254 0.0254,0 0.1016,-0.0254 0.1905,0 0.2921,0.0254 0.1143,0.0254 0.1778,0.1143 0.0635,0.1143 0.1016,0.2794 0.0127,0.127 0.0127,0.5334 v 2.4765 0.1905 q -0.0127,0.1016 -0.0127,0.4572 0,0.381 -0.0254,0.5969 l -0.0127,0.5715 q -0.0127,0.1905 -0.0127,0.4826 l -0.0127,0.2032 v 0.8128 q 0,0.762 -0.0635,1.2954 0,0.1778 -0.0889,0.3556 -0.2286,0 -0.6604,0.0254 -0.2032,0 -0.2667,0.0254 h -0.127 -0.0381 q -0.0889,0 -0.0889,-0.0254 -0.1016,-0.0254 -0.1143,-0.0254 l -0.1016,0.0508 h -1.1684 q -0.0127,0.0127 -0.2032,0.0127 h -0.4826 -0.4699 z"
         id="path889"
         style="font-style:normal;font-variant:normal;font-weight:normal;font-stretch:normal;font-size:12.7px;line-height:1.25;font-family:'Sigmar One';-inkscape-font-specification:'Sigmar One, Normal';font-variant-ligatures:normal;font-variant-caps:normal;font-variant-numeric:normal;font-variant-east-asian:normal;fill:#000000;fill-opacity:1;stroke-width:0.264583" />
      <path
         d="m 27.49762,9.12707 q -0.215899,0 -0.279399,-0.2794 -0.0635,-0.1397 -0.0635,-0.508 0,-1.1049 -0.0254,-1.9685 -0.0381,-1.2446 -0.0381,-2.6289 v -2.794 q 0,-0.1143 0.1016,-0.2159 0.1143,-0.1143 0.2286,-0.1143 l 1.460499,0.0127 q 0.4064,0.0127 1.0668,0.0127 0.9525,0 1.4732,-0.0127 l 0.4699,-0.0127 q 0.762,-0.0254 1.2573,-0.0254 0.8001,0 1.524,0.2286 0.8509,0.254 1.3843,0.8763 0.5969,0.6731 0.5969,1.8161 0,1.9304 -0.9779,2.794 -0.8636,0.8128 -2.5781,0.8128 h -1.7399 q 0.0127,0.2921 0.0127,0.6223 0,0.1143 -0.0127,0.2794 0,0.1524 0,0.4191 0,0.4191 -0.1778,0.5334 -0.1397,0.1143 -0.5207,0.1143 -0.5588,0 -0.7747,0.0127 -0.8763,0 -1.397,0.0254 z m 4.5466,-3.5306 q 0.2667,0 0.3937,-0.508 0.1016,-0.3429 0.1524,-1.016 0.0254,-0.3683 0.0254,-0.8255 v -0.1397 q 0,-0.2032 -0.0635,-0.6096 -0.0508,-0.2286 -0.1143,-0.3556 -0.0635,-0.1397 -0.1651,-0.2286 -0.1016,-0.1143 -0.2286,-0.1143 -0.0635,0 -0.1143,0.0508 -0.0381,0.0508 -0.0762,0.127 -0.1397,0.2286 -0.254,1.016 -0.0381,0.2286 -0.0635,0.6858 -0.0635,0.6985 -0.0635,1.8669 0,0 0.0127,0.0127 0.0127,0.0127 0.0508,0.0254 l 0.1524,0.0127 z"
         id="path891"
         style="font-style:normal;font-variant:normal;font-weight:normal;font-stretch:normal;font-size:12.7px;line-height:1.25;font-family:'Sigmar One';-inkscape-font-specification:'Sigmar One, Normal';font-variant-ligatures:normal;font-variant-caps:normal;font-variant-numeric:normal;font-variant-east-asian:normal;fill:#000000;fill-opacity:1;stroke-width:0.264583" />
      <path
         d="m 38.152905,9.12707 q -0.2159,0 -0.2794,-0.2794 -0.0635,-0.1397 -0.0635,-0.508 0,-1.1049 -0.0254,-1.9685 -0.0381,-1.2446 -0.0381,-2.6289 v -2.794 q 0,-0.1143 0.1016,-0.2159 0.1143,-0.1143 0.2286,-0.1143 l 1.4605,0.0127 q 0.4064,0.0127 1.0668,0.0127 0.9525,0 1.4732,-0.0127 l 0.4699,-0.0127 q 0.762,-0.0254 1.2573,-0.0254 0.8001,0 1.524,0.2286 0.8509,0.254 1.3843,0.8763 0.5969,0.6731 0.5969,1.8161 0,1.9304 -0.9779,2.794 -0.8636,0.8128 -2.5781,0.8128 h -1.7399 q 0.0127,0.2921 0.0127,0.6223 0,0.1143 -0.0127,0.2794 0,0.1524 0,0.4191 0,0.4191 -0.1778,0.5334 -0.1397,0.1143 -0.5207,0.1143 -0.5588,0 -0.7747,0.0127 -0.8763,0 -1.397,0.0254 z m 4.5466,-3.5306 q 0.2667,0 0.3937,-0.508 0.1016,-0.3429 0.1524,-1.016 0.0254,-0.3683 0.0254,-0.8255 v -0.1397 q 0,-0.2032 -0.0635,-0.6096 -0.0508,-0.2286 -0.1143,-0.3556 -0.0635,-0.1397 -0.1651,-0.2286 -0.1016,-0.1143 -0.2286,-0.1143 -0.0635,0 -0.1143,0.0508 -0.0381,0.0508 -0.0762,0.127 -0.1397,0.2286 -0.254,1.016 -0.0381,0.2286 -0.0635,0.6858 -0.0635,0.6985 -0.0635,1.8669 0,0 0.0127,0.0127 0.0127,0.0127 0.0508,0.0254 l 0.1524,0.0127 z"
         id="path893"
         style="font-style:normal;font-variant:normal;font-weight:normal;font-stretch:normal;font-size:12.7px;line-height:1.25;font-family:'Sigmar One';-inkscape-font-specification:'Sigmar One, Normal';font-variant-ligatures:normal;font-variant-caps:normal;font-variant-numeric:normal;font-variant-east-asian:normal;fill:#000000;fill-opacity:1;stroke-width:0.264583" />
      <path
         d="m 53.48179,10.27007 q 0,0 -0.0254,0 -0.0127,0 -0.0254,0.0127 l -0.0381,0.0127 q -0.0381,0 -0.0381,-0.0254 -0.0508,-0.0254 -0.0635,-0.0762 -0.4445,-0.0762 -0.5715,-0.127 l -0.4445,-0.127 h -0.0635 q -0.0635,0 -0.1016,-0.0254 -0.1143,0 -0.1905,-0.0254 -0.1016,-0.0127 -0.3302,-0.0889 -0.2286,-0.0762 -0.3302,-0.1143 -0.2032,-0.0635 -0.5842,-0.2159 -0.1778,-0.0762 -0.2667,-0.1016 l -0.2921,-0.1778 q -0.1016,-0.0762 -0.1016,-0.1524 0,-0.2413 0.1143,-0.508 0.0381,-0.0889 0.1016,-0.2159 0.0762,-0.127 0.1397,-0.2921 0.0254,-0.0762 0.1397,-0.2286 0.3048,-0.508 0.3302,-0.5588 0.0508,-0.1397 0.0508,-0.254 0,-0.1905 -0.2032,-0.3937 -0.1905,-0.1905 -0.1905,-0.3683 -0.0635,0 -0.0635,0.0127 h -0.0254 -0.0127 q -0.0254,-0.0254 -0.0254,-0.0508 -0.4064,-0.508 -0.8255,-1.2319 -0.5334,-0.8382 -0.8636,-1.524 -0.1016,-0.1524 -0.2413,-0.5461 -0.1651,-0.3429 -0.2794,-0.6985 -0.1397,-0.3937 -0.1397,-0.508 0,-0.127 0.2794,-0.3302 0.1143,-0.0762 0.2667,-0.1524 0.1524,-0.0762 0.2286,-0.1143 0.0635,-0.0127 0.5334,-0.1397 l 0.1778,-0.0635 q 0.0508,-0.0381 0.1143,-0.0381 0.0762,0 0.2413,-0.0508 0.3683,-0.0762 0.4318,-0.1016 l 0.4572,-0.1016 q 0.381,-0.127 0.4445,-0.1397 l 0.0254,-0.0127 h 0.0381 0.0254 q 0.2667,0 0.3556,0.127 0.0762,0.0762 0.254,0.3556 0.0254,0.0762 0.0889,0.1778 0.0762,0.1016 0.1016,0.127 l 0.1016,0.1397 0.0889,0.1016 q 0.0508,0.0635 0.1016,0.1524 0.0508,0.0889 0.1143,0.1905 0.3302,0.5842 0.508,0.8255 0.1143,0.1651 0.1905,0.1651 0.0381,0 0.127,-0.1397 0.1143,-0.1778 0.4191,-0.8128 0.1651,-0.4064 0.3937,-0.9271 0.1143,-0.2286 0.127,-0.2794 0.0508,-0.2286 0.1143,-0.2921 0.0635,-0.1016 0.2286,-0.1016 0.4064,0 1.0668,0.1651 0.6477,0.1905 1.2446,0.4953 0.6096,0.3302 0.8255,0.6096 0,0.3429 -0.1651,0.635 l -1.1684,2.5781 -1.143,2.5908 -0.0508,0.0127 q -0.0127,0 -0.0381,0.0254 -0.8382,1.6383 -1.5367,2.9464 -0.0254,0.0508 -0.1524,0.0508 z"
         id="path895"
         style="font-style:normal;font-variant:normal;font-weight:normal;font-stretch:normal;font-size:12.7px;line-height:1.25;font-family:'Sigmar One';-inkscape-font-specification:'Sigmar One, Normal';font-variant-ligatures:normal;font-variant-caps:normal;font-variant-numeric:normal;font-variant-east-asian:normal;fill:#000000;fill-opacity:1;stroke-width:0.264583" />
    </g>
  </g>
</svg>
